<?plantuml 1.2026.1?><svg xmlns="http://www.w3.org/2000/svg" xmlns:xlink="http://www.w3.org/1999/xlink" contentStyleType="text/css" data-diagram-type="ACTIVITY" height="1365px" preserveAspectRatio="none" style="width:777px;height:1365px;background:#FEFEFE;" version="1.1" viewBox="0 0 777 1365" width="777px" zoomAndPan="magnify"><title>Activity Diagram &#8212; Create and Analyze a Trade</title><defs/><g><rect fill="#FEFEFE" height="1365" style="stroke:none;stroke-width:1;" width="777" x="0" y="0"/><g class="title" data-source-line="4"><text fill="#000000" font-family="sans-serif" font-size="14" font-weight="bold" lengthAdjust="spacing" textLength="373.7412" x="200.5044" y="32.9951">Activity Diagram &#8212; Create and Analyze a Trade</text></g><ellipse cx="488.9531" cy="57.2969" fill="#222222" rx="10" ry="10" style="stroke:#222222;stroke-width:1;"/><rect fill="#F1F1F1" height="33.9688" rx="12.5" ry="12.5" style="stroke:#181818;stroke-width:0.5;" width="211.0273" x="383.4395" y="87.2969"/><text fill="#000000" font-family="sans-serif" font-size="12" lengthAdjust="spacing" textLength="191.0273" x="393.4395" y="108.4355">Trader opens "New Trade" form</text><rect fill="#F1F1F1" height="61.9063" rx="12.5" ry="12.5" style="stroke:#181818;stroke-width:0.5;" width="229.4785" x="374.2139" y="141.2656"/><text fill="#000000" font-family="sans-serif" font-size="12" lengthAdjust="spacing" textLength="93.498" x="384.2139" y="162.4043">Enter basic info</text><text fill="#000000" font-family="sans-serif" font-size="12" lengthAdjust="spacing" textLength="209.4785" x="384.2139" y="176.373">(Instrument, Direction, Entry Price,</text><text fill="#000000" font-family="sans-serif" font-size="12" lengthAdjust="spacing" textLength="134.543" x="384.2139" y="190.3418">Stop Loss, Take Profit)</text><rect fill="#F1F1F1" height="47.9375" rx="12.5" ry="12.5" style="stroke:#181818;stroke-width:0.5;" width="221.2051" x="378.3506" y="223.1719"/><text fill="#000000" font-family="sans-serif" font-size="12" lengthAdjust="spacing" textLength="100.6289" x="388.3506" y="244.3105">Enter timing info</text><text fill="#000000" font-family="sans-serif" font-size="12" lengthAdjust="spacing" textLength="201.2051" x="388.3506" y="258.2793">(Entry Time, Session, Timeframe)</text><rect fill="#F1F1F1" height="33.9688" rx="12.5" ry="12.5" style="stroke:#181818;stroke-width:0.5;" width="112.25" x="432.8281" y="291.1094"/><text fill="#000000" font-family="sans-serif" font-size="12" lengthAdjust="spacing" textLength="92.25" x="442.8281" y="312.248">Select Strategy</text><polygon fill="#F1F1F1" points="434.3425,345.0781,543.5637,345.0781,555.5637,357.0781,543.5637,369.0781,434.3425,369.0781,422.3425,357.0781,434.3425,345.0781" style="stroke:#181818;stroke-width:0.5;"/><text fill="#000000" font-family="sans-serif" font-size="11" lengthAdjust="spacing" textLength="109.2212" x="434.3425" y="360.8862">Exit Price provided?</text><text fill="#000000" font-family="sans-serif" font-size="11" lengthAdjust="spacing" textLength="19.0083" x="403.3342" y="354.4839">yes</text><text fill="#000000" font-family="sans-serif" font-size="11" lengthAdjust="spacing" textLength="13.7017" x="555.5637" y="354.4839">no</text><rect fill="#F1F1F1" height="33.9688" rx="12.5" ry="12.5" style="stroke:#181818;stroke-width:0.5;" width="220.3145" x="280.8882" y="379.0781"/><text fill="#000000" font-family="sans-serif" font-size="12" lengthAdjust="spacing" textLength="200.3145" x="290.8882" y="400.2168">System calculates P&amp;L (USD &amp; R)</text><rect fill="#F1F1F1" height="33.9688" rx="12.5" ry="12.5" style="stroke:#181818;stroke-width:0.5;" width="195.2305" x="293.4302" y="433.0469"/><text fill="#000000" font-family="sans-serif" font-size="12" lengthAdjust="spacing" textLength="175.2305" x="303.4302" y="454.1855">System calculates Actual R:R</text><rect fill="#F1F1F1" height="33.9688" rx="12.5" ry="12.5" style="stroke:#181818;stroke-width:0.5;" width="147.0254" x="317.5327" y="487.0156"/><text fill="#000000" font-family="sans-serif" font-size="12" lengthAdjust="spacing" textLength="127.0254" x="327.5327" y="508.1543">Set status = CLOSED</text><rect fill="#F1F1F1" height="33.9688" rx="12.5" ry="12.5" style="stroke:#181818;stroke-width:0.5;" width="131.3164" x="521.2026" y="379.0781"/><text fill="#000000" font-family="sans-serif" font-size="12" lengthAdjust="spacing" textLength="111.3164" x="531.2026" y="400.2168">Set status = OPEN</text><polygon fill="#F1F1F1" points="488.9531,526.9844,500.9531,538.9844,488.9531,550.9844,476.9531,538.9844,488.9531,526.9844" style="stroke:#181818;stroke-width:0.5;"/><rect fill="#F1F1F1" height="47.9375" rx="12.5" ry="12.5" style="stroke:#181818;stroke-width:0.5;" width="257.5566" x="360.1748" y="570.9844"/><text fill="#000000" font-family="sans-serif" font-size="12" lengthAdjust="spacing" textLength="161.2148" x="370.1748" y="592.123">Enter psychological review</text><text fill="#000000" font-family="sans-serif" font-size="12" lengthAdjust="spacing" textLength="237.5566" x="370.1748" y="606.0918">(Emotional State, Followed Plan, Notes)</text><rect fill="#F1F1F1" height="33.9688" rx="12.5" ry="12.5" style="stroke:#181818;stroke-width:0.5;" width="101" x="438.4531" y="638.9219"/><text fill="#000000" font-family="sans-serif" font-size="12" lengthAdjust="spacing" textLength="81" x="448.4531" y="660.0605">Submit Trade</text><rect fill="#F1F1F1" height="33.9688" rx="12.5" ry="12.5" style="stroke:#181818;stroke-width:0.5;" width="188.5215" x="394.6924" y="692.8906"/><text fill="#000000" font-family="sans-serif" font-size="12" lengthAdjust="spacing" textLength="168.5215" x="404.6924" y="714.0293">System validates input data</text><polygon fill="#F1F1F1" points="437.2322,746.8594,540.6741,746.8594,552.6741,758.8594,540.6741,770.8594,437.2322,770.8594,425.2322,758.8594,437.2322,746.8594" style="stroke:#181818;stroke-width:0.5;"/><text fill="#000000" font-family="sans-serif" font-size="11" lengthAdjust="spacing" textLength="103.4419" x="437.2322" y="762.6675">Validation passed?</text><text fill="#000000" font-family="sans-serif" font-size="11" lengthAdjust="spacing" textLength="19.0083" x="406.2239" y="756.2651">yes</text><text fill="#000000" font-family="sans-serif" font-size="11" lengthAdjust="spacing" textLength="13.7017" x="552.6741" y="756.2651">no</text><rect fill="#F1F1F1" height="33.9688" rx="12.5" ry="12.5" style="stroke:#181818;stroke-width:0.5;" width="214.0215" x="187.5049" y="780.8594"/><text fill="#000000" font-family="sans-serif" font-size="12" lengthAdjust="spacing" textLength="194.0215" x="197.5049" y="801.998">System saves trade to database</text><rect fill="#555555" height="6" rx="2.5" ry="2.5" style="stroke:#555555;stroke-width:1;" width="569.0313" x="11" y="834.8281"/><rect fill="#F1F1F1" height="47.9375" rx="12.5" ry="12.5" style="stroke:#181818;stroke-width:0.5;" width="173.1816" x="23" y="860.8281"/><text fill="#000000" font-family="sans-serif" font-size="12" lengthAdjust="spacing" textLength="153.1816" x="33" y="881.9668">Upload chart screenshots</text><text fill="#000000" font-family="sans-serif" font-size="12" lengthAdjust="spacing" textLength="57.9961" x="33" y="895.9355">(optional)</text><rect fill="#F1F1F1" height="33.9688" rx="12.5" ry="12.5" style="stroke:#181818;stroke-width:0.5;" width="134.9961" x="224.1816" y="867.8125"/><text fill="#000000" font-family="sans-serif" font-size="12" lengthAdjust="spacing" textLength="114.9961" x="234.1816" y="888.9512">Add tags (optional)</text><rect fill="#F1F1F1" height="33.9688" rx="12.5" ry="12.5" style="stroke:#181818;stroke-width:0.5;" width="178.8535" x="387.1777" y="867.8125"/><text fill="#000000" font-family="sans-serif" font-size="12" lengthAdjust="spacing" textLength="158.8535" x="397.1777" y="888.9512">Log trade errors (optional)</text><rect fill="#555555" height="6" rx="2.5" ry="2.5" style="stroke:#555555;stroke-width:1;" width="569.0313" x="11" y="928.7656"/><rect fill="#F1F1F1" height="47.9375" rx="12.5" ry="12.5" style="stroke:#181818;stroke-width:0.5;" width="195.7227" x="196.6543" y="954.7656"/><text fill="#000000" font-family="sans-serif" font-size="12" lengthAdjust="spacing" textLength="154.5469" x="206.6543" y="975.9043">System updates analytics</text><text fill="#000000" font-family="sans-serif" font-size="12" lengthAdjust="spacing" textLength="175.7227" x="206.6543" y="989.873">(Win Rate, P&amp;L, Profit Factor)</text><rect fill="#F1F1F1" height="33.9688" rx="12.5" ry="12.5" style="stroke:#181818;stroke-width:0.5;" width="207.8984" x="190.5664" y="1022.7031"/><text fill="#000000" font-family="sans-serif" font-size="12" lengthAdjust="spacing" textLength="187.8984" x="200.5664" y="1043.8418">System checks risk compliance</text><polygon fill="#F1F1F1" points="243.9629,1076.6719,345.0684,1076.6719,357.0684,1088.6719,345.0684,1100.6719,243.9629,1100.6719,231.9629,1088.6719,243.9629,1076.6719" style="stroke:#181818;stroke-width:0.5;"/><text fill="#000000" font-family="sans-serif" font-size="11" lengthAdjust="spacing" textLength="101.1055" x="243.9629" y="1092.48">Risk rule violated?</text><text fill="#000000" font-family="sans-serif" font-size="11" lengthAdjust="spacing" textLength="19.0083" x="212.9546" y="1086.0776">yes</text><text fill="#000000" font-family="sans-serif" font-size="11" lengthAdjust="spacing" textLength="13.7017" x="357.0684" y="1086.0776">no</text><rect fill="#F1F1F1" height="33.9688" rx="12.5" ry="12.5" style="stroke:#181818;stroke-width:0.5;" width="177.8926" x="104.5986" y="1110.6719"/><text fill="#000000" font-family="sans-serif" font-size="12" lengthAdjust="spacing" textLength="157.8926" x="114.5986" y="1131.8105">System flags risk violation</text><rect fill="#F1F1F1" height="33.9688" rx="12.5" ry="12.5" style="stroke:#181818;stroke-width:0.5;" width="207.3066" x="89.8916" y="1164.6406"/><text fill="#000000" font-family="sans-serif" font-size="12" lengthAdjust="spacing" textLength="187.3066" x="99.8916" y="1185.7793">Display risk alert on dashboard</text><rect fill="#F1F1F1" height="33.9688" rx="12.5" ry="12.5" style="stroke:#181818;stroke-width:0.5;" width="156.5762" x="317.1982" y="1110.6719"/><text fill="#000000" font-family="sans-serif" font-size="12" lengthAdjust="spacing" textLength="136.5762" x="327.1982" y="1131.8105">Trade within risk limits</text><polygon fill="#F1F1F1" points="294.5156,1204.6094,306.5156,1216.6094,294.5156,1228.6094,282.5156,1216.6094,294.5156,1204.6094" style="stroke:#181818;stroke-width:0.5;"/><rect fill="#F1F1F1" height="33.9688" rx="12.5" ry="12.5" style="stroke:#181818;stroke-width:0.5;" width="188.5918" x="200.2197" y="1248.6094"/><text fill="#000000" font-family="sans-serif" font-size="12" lengthAdjust="spacing" textLength="168.5918" x="210.2197" y="1269.748">Trade recorded successfully</text><rect fill="#F1F1F1" height="33.9688" rx="12.5" ry="12.5" style="stroke:#181818;stroke-width:0.5;" width="166.7188" x="600.0313" y="780.8594"/><text fill="#000000" font-family="sans-serif" font-size="12" lengthAdjust="spacing" textLength="146.7188" x="610.0313" y="801.998">Display validation errors</text><rect fill="#F1F1F1" height="33.9688" rx="12.5" ry="12.5" style="stroke:#181818;stroke-width:0.5;" width="108.4355" x="629.1729" y="834.8281"/><text fill="#000000" font-family="sans-serif" font-size="12" lengthAdjust="spacing" textLength="88.4355" x="639.1729" y="855.9668">Return to form</text><polygon fill="#F1F1F1" points="488.9531,1288.5781,500.9531,1300.5781,488.9531,1312.5781,476.9531,1300.5781,488.9531,1288.5781" style="stroke:#181818;stroke-width:0.5;"/><ellipse cx="488.9531" cy="1343.5781" fill="none" rx="11" ry="11" style="stroke:#222222;stroke-width:1;"/><ellipse cx="488.9531" cy="1343.5781" fill="#222222" rx="6" ry="6" style="stroke:#222222;stroke-width:1;"/><line style="stroke:#181818;stroke-width:1;" x1="488.9531" x2="488.9531" y1="67.2969" y2="87.2969"/><polygon fill="#181818" points="484.9531,77.2969,488.9531,87.2969,492.9531,77.2969,488.9531,81.2969" style="stroke:#181818;stroke-width:1;"/><line style="stroke:#181818;stroke-width:1;" x1="488.9531" x2="488.9531" y1="121.2656" y2="141.2656"/><polygon fill="#181818" points="484.9531,131.2656,488.9531,141.2656,492.9531,131.2656,488.9531,135.2656" style="stroke:#181818;stroke-width:1;"/><line style="stroke:#181818;stroke-width:1;" x1="488.9531" x2="488.9531" y1="203.1719" y2="223.1719"/><polygon fill="#181818" points="484.9531,213.1719,488.9531,223.1719,492.9531,213.1719,488.9531,217.1719" style="stroke:#181818;stroke-width:1;"/><line style="stroke:#181818;stroke-width:1;" x1="488.9531" x2="488.9531" y1="271.1094" y2="291.1094"/><polygon fill="#181818" points="484.9531,281.1094,488.9531,291.1094,492.9531,281.1094,488.9531,285.1094" style="stroke:#181818;stroke-width:1;"/><line style="stroke:#181818;stroke-width:1;" x1="391.0454" x2="391.0454" y1="413.0469" y2="433.0469"/><polygon fill="#181818" points="387.0454,423.0469,391.0454,433.0469,395.0454,423.0469,391.0454,427.0469" style="stroke:#181818;stroke-width:1;"/><line style="stroke:#181818;stroke-width:1;" x1="391.0454" x2="391.0454" y1="467.0156" y2="487.0156"/><polygon fill="#181818" points="387.0454,477.0156,391.0454,487.0156,395.0454,477.0156,391.0454,481.0156" style="stroke:#181818;stroke-width:1;"/><line style="stroke:#181818;stroke-width:1;" x1="422.3425" x2="391.0454" y1="357.0781" y2="357.0781"/><line style="stroke:#181818;stroke-width:1;" x1="391.0454" x2="391.0454" y1="357.0781" y2="379.0781"/><polygon fill="#181818" points="387.0454,369.0781,391.0454,379.0781,395.0454,369.0781,391.0454,373.0781" style="stroke:#181818;stroke-width:1;"/><line style="stroke:#181818;stroke-width:1;" x1="555.5637" x2="586.8608" y1="357.0781" y2="357.0781"/><line style="stroke:#181818;stroke-width:1;" x1="586.8608" x2="586.8608" y1="357.0781" y2="379.0781"/><polygon fill="#181818" points="582.8608,369.0781,586.8608,379.0781,590.8608,369.0781,586.8608,373.0781" style="stroke:#181818;stroke-width:1;"/><line style="stroke:#181818;stroke-width:1;" x1="391.0454" x2="391.0454" y1="520.9844" y2="538.9844"/><line style="stroke:#181818;stroke-width:1;" x1="391.0454" x2="476.9531" y1="538.9844" y2="538.9844"/><polygon fill="#181818" points="466.9531,534.9844,476.9531,538.9844,466.9531,542.9844,470.9531,538.9844" style="stroke:#181818;stroke-width:1;"/><line style="stroke:#181818;stroke-width:1;" x1="586.8608" x2="586.8608" y1="413.0469" y2="538.9844"/><line style="stroke:#181818;stroke-width:1;" x1="586.8608" x2="500.9531" y1="538.9844" y2="538.9844"/><polygon fill="#181818" points="510.9531,534.9844,500.9531,538.9844,510.9531,542.9844,506.9531,538.9844" style="stroke:#181818;stroke-width:1;"/><line style="stroke:#181818;stroke-width:1;" x1="488.9531" x2="488.9531" y1="325.0781" y2="345.0781"/><polygon fill="#181818" points="484.9531,335.0781,488.9531,345.0781,492.9531,335.0781,488.9531,339.0781" style="stroke:#181818;stroke-width:1;"/><line style="stroke:#181818;stroke-width:1;" x1="488.9531" x2="488.9531" y1="550.9844" y2="570.9844"/><polygon fill="#181818" points="484.9531,560.9844,488.9531,570.9844,492.9531,560.9844,488.9531,564.9844" style="stroke:#181818;stroke-width:1;"/><line style="stroke:#181818;stroke-width:1;" x1="488.9531" x2="488.9531" y1="618.9219" y2="638.9219"/><polygon fill="#181818" points="484.9531,628.9219,488.9531,638.9219,492.9531,628.9219,488.9531,632.9219" style="stroke:#181818;stroke-width:1;"/><line style="stroke:#181818;stroke-width:1;" x1="488.9531" x2="488.9531" y1="672.8906" y2="692.8906"/><polygon fill="#181818" points="484.9531,682.8906,488.9531,692.8906,492.9531,682.8906,488.9531,686.8906" style="stroke:#181818;stroke-width:1;"/><line style="stroke:#181818;stroke-width:1;" x1="109.5908" x2="109.5908" y1="840.8281" y2="860.8281"/><polygon fill="#181818" points="105.5908,850.8281,109.5908,860.8281,113.5908,850.8281,109.5908,854.8281" style="stroke:#181818;stroke-width:1;"/><line style="stroke:#181818;stroke-width:1;" x1="291.6797" x2="291.6797" y1="840.8281" y2="867.8125"/><polygon fill="#181818" points="287.6797,857.8125,291.6797,867.8125,295.6797,857.8125,291.6797,861.8125" style="stroke:#181818;stroke-width:1;"/><line style="stroke:#181818;stroke-width:1;" x1="476.6045" x2="476.6045" y1="840.8281" y2="867.8125"/><polygon fill="#181818" points="472.6045,857.8125,476.6045,867.8125,480.6045,857.8125,476.6045,861.8125" style="stroke:#181818;stroke-width:1;"/><line style="stroke:#181818;stroke-width:1;" x1="109.5908" x2="109.5908" y1="908.7656" y2="928.7656"/><polygon fill="#181818" points="105.5908,918.7656,109.5908,928.7656,113.5908,918.7656,109.5908,922.7656" style="stroke:#181818;stroke-width:1;"/><line style="stroke:#181818;stroke-width:1;" x1="291.6797" x2="291.6797" y1="901.7813" y2="928.7656"/><polygon fill="#181818" points="287.6797,918.7656,291.6797,928.7656,295.6797,918.7656,291.6797,922.7656" style="stroke:#181818;stroke-width:1;"/><line style="stroke:#181818;stroke-width:1;" x1="476.6045" x2="476.6045" y1="901.7813" y2="928.7656"/><polygon fill="#181818" points="472.6045,918.7656,476.6045,928.7656,480.6045,918.7656,476.6045,922.7656" style="stroke:#181818;stroke-width:1;"/><line style="stroke:#181818;stroke-width:1;" x1="294.5156" x2="294.5156" y1="814.8281" y2="834.8281"/><polygon fill="#181818" points="290.5156,824.8281,294.5156,834.8281,298.5156,824.8281,294.5156,828.8281" style="stroke:#181818;stroke-width:1;"/><line style="stroke:#181818;stroke-width:1;" x1="294.5156" x2="294.5156" y1="934.7656" y2="954.7656"/><polygon fill="#181818" points="290.5156,944.7656,294.5156,954.7656,298.5156,944.7656,294.5156,948.7656" style="stroke:#181818;stroke-width:1;"/><line style="stroke:#181818;stroke-width:1;" x1="294.5156" x2="294.5156" y1="1002.7031" y2="1022.7031"/><polygon fill="#181818" points="290.5156,1012.7031,294.5156,1022.7031,298.5156,1012.7031,294.5156,1016.7031" style="stroke:#181818;stroke-width:1;"/><line style="stroke:#181818;stroke-width:1;" x1="193.5449" x2="193.5449" y1="1144.6406" y2="1164.6406"/><polygon fill="#181818" points="189.5449,1154.6406,193.5449,1164.6406,197.5449,1154.6406,193.5449,1158.6406" style="stroke:#181818;stroke-width:1;"/><line style="stroke:#181818;stroke-width:1;" x1="231.9629" x2="193.5449" y1="1088.6719" y2="1088.6719"/><line style="stroke:#181818;stroke-width:1;" x1="193.5449" x2="193.5449" y1="1088.6719" y2="1110.6719"/><polygon fill="#181818" points="189.5449,1100.6719,193.5449,1110.6719,197.5449,1100.6719,193.5449,1104.6719" style="stroke:#181818;stroke-width:1;"/><line style="stroke:#181818;stroke-width:1;" x1="357.0684" x2="395.4863" y1="1088.6719" y2="1088.6719"/><line style="stroke:#181818;stroke-width:1;" x1="395.4863" x2="395.4863" y1="1088.6719" y2="1110.6719"/><polygon fill="#181818" points="391.4863,1100.6719,395.4863,1110.6719,399.4863,1100.6719,395.4863,1104.6719" style="stroke:#181818;stroke-width:1;"/><line style="stroke:#181818;stroke-width:1;" x1="193.5449" x2="193.5449" y1="1198.6094" y2="1216.6094"/><line style="stroke:#181818;stroke-width:1;" x1="193.5449" x2="282.5156" y1="1216.6094" y2="1216.6094"/><polygon fill="#181818" points="272.5156,1212.6094,282.5156,1216.6094,272.5156,1220.6094,276.5156,1216.6094" style="stroke:#181818;stroke-width:1;"/><line style="stroke:#181818;stroke-width:1;" x1="395.4863" x2="395.4863" y1="1144.6406" y2="1216.6094"/><line style="stroke:#181818;stroke-width:1;" x1="395.4863" x2="306.5156" y1="1216.6094" y2="1216.6094"/><polygon fill="#181818" points="316.5156,1212.6094,306.5156,1216.6094,316.5156,1220.6094,312.5156,1216.6094" style="stroke:#181818;stroke-width:1;"/><line style="stroke:#181818;stroke-width:1;" x1="294.5156" x2="294.5156" y1="1056.6719" y2="1076.6719"/><polygon fill="#181818" points="290.5156,1066.6719,294.5156,1076.6719,298.5156,1066.6719,294.5156,1070.6719" style="stroke:#181818;stroke-width:1;"/><line style="stroke:#181818;stroke-width:1;" x1="294.5156" x2="294.5156" y1="1228.6094" y2="1248.6094"/><polygon fill="#181818" points="290.5156,1238.6094,294.5156,1248.6094,298.5156,1238.6094,294.5156,1242.6094" style="stroke:#181818;stroke-width:1;"/><line style="stroke:#181818;stroke-width:1;" x1="683.3906" x2="683.3906" y1="814.8281" y2="834.8281"/><polygon fill="#181818" points="679.3906,824.8281,683.3906,834.8281,687.3906,824.8281,683.3906,828.8281" style="stroke:#181818;stroke-width:1;"/><line style="stroke:#181818;stroke-width:1;" x1="425.2322" x2="294.5156" y1="758.8594" y2="758.8594"/><line style="stroke:#181818;stroke-width:1;" x1="294.5156" x2="294.5156" y1="758.8594" y2="780.8594"/><polygon fill="#181818" points="290.5156,770.8594,294.5156,780.8594,298.5156,770.8594,294.5156,774.8594" style="stroke:#181818;stroke-width:1;"/><line style="stroke:#181818;stroke-width:1;" x1="552.6741" x2="683.3906" y1="758.8594" y2="758.8594"/><line style="stroke:#181818;stroke-width:1;" x1="683.3906" x2="683.3906" y1="758.8594" y2="780.8594"/><polygon fill="#181818" points="679.3906,770.8594,683.3906,780.8594,687.3906,770.8594,683.3906,774.8594" style="stroke:#181818;stroke-width:1;"/><line style="stroke:#181818;stroke-width:1;" x1="294.5156" x2="294.5156" y1="1282.5781" y2="1300.5781"/><line style="stroke:#181818;stroke-width:1;" x1="294.5156" x2="476.9531" y1="1300.5781" y2="1300.5781"/><polygon fill="#181818" points="466.9531,1296.5781,476.9531,1300.5781,466.9531,1304.5781,470.9531,1300.5781" style="stroke:#181818;stroke-width:1;"/><line style="stroke:#181818;stroke-width:1;" x1="683.3906" x2="683.3906" y1="868.7969" y2="1300.5781"/><line style="stroke:#181818;stroke-width:1;" x1="683.3906" x2="500.9531" y1="1300.5781" y2="1300.5781"/><polygon fill="#181818" points="510.9531,1296.5781,500.9531,1300.5781,510.9531,1304.5781,506.9531,1300.5781" style="stroke:#181818;stroke-width:1;"/><line style="stroke:#181818;stroke-width:1;" x1="488.9531" x2="488.9531" y1="726.8594" y2="746.8594"/><polygon fill="#181818" points="484.9531,736.8594,488.9531,746.8594,492.9531,736.8594,488.9531,740.8594" style="stroke:#181818;stroke-width:1;"/><line style="stroke:#181818;stroke-width:1;" x1="488.9531" x2="488.9531" y1="1312.5781" y2="1332.5781"/><polygon fill="#181818" points="484.9531,1322.5781,488.9531,1332.5781,492.9531,1322.5781,488.9531,1326.5781" style="stroke:#181818;stroke-width:1;"/><?plantuml-src VLFRRjim37tFLn0TK2H0lg31C1HD0Wm8sY1kjvU-C39j2v4bGwIJUK_xY7tXlcIKbLxMReCDs98EAPx3GpvOts745lPe3dKClIzlWWiHFgnNwPdmCu8RBCF9-XhMw9Wc4x7Y2AwDsAEL0POMwuJxzUCdt4H28K1VmhL7DtpNVxYFM6eO2qQPJAx6POJGaMUukALJ1bn05MAxKC3AYvxlaQq1wwlmwAUVFKliM_8or_iYwTt1pq6HSO1jj8RcZxwGqC4cCC_X7W-a-w6oCdj9ARPDDCuvS_2zRMaE1J6F6TEoKZOqXXNaz2ee92ghUj0jMy5qzSrAlXIw68wsfFBJ3AGX3zE1U3O1k2e65ch1e3Ezqs26xUK6fW_54YvXfyd_Yb5DUtImkzfb00ceQj8pV8IRpLsnMYucf3s0gG-pTuYxxUfMptrfgsVA7G-cqSRMLg-1I4TBfyIz3Kb1tIeqMWLO1-V2YKhOEbGPReEMaoNezwtI7LiqhdFHHtIs76jMc_G2-ezdURxa8qqF7JB_Mnp6eyPBoWmInXJQT4hKzLKt7FIZy8VE1Ip1DEeVO1D9ZTC4OUKHkanZ53H50DPeVOwxBaiGh1d-3zk4-bm4nHZYMxZg-LJBgzhxBhF7v7An9XNprNhOZMfgh-Td--dG60bnjlWptZHa3WpHyW5CQ3jdqPidwad5NJg9lGxQqORaZdSolYIhN68vvifWhNwH4KlBdSCX7w8ZLL3xKY8t-u2n70c-CfH6Z9s6avL6wOnXJiT6-Ao5UYiJoJWTnH1r081xOtI8gjwvuOr9dseulXWZApsQV4VIHvyCaEV_x5_MOVuD?></g></svg>