<?plantuml 1.2026.1?><svg xmlns="http://www.w3.org/2000/svg" xmlns:xlink="http://www.w3.org/1999/xlink" contentStyleType="text/css" data-diagram-type="CLASS" height="1227px" preserveAspectRatio="none" style="width:1427px;height:1227px;background:#FEFEFE;" version="1.1" viewBox="0 0 1427 1227" width="1427px" zoomAndPan="magnify"><title>Class Diagram &#8212; Trading Journal &amp; Risk Analysis System</title><defs/><g><rect fill="#FEFEFE" height="1227" style="stroke:none;stroke-width:1;" width="1427" x="0" y="0"/><g class="title" data-source-line="6"><text fill="#000000" font-family="sans-serif" font-size="14" font-weight="bold" lengthAdjust="spacing" textLength="447.0156" x="483.4608" y="22.9951">Class Diagram &#8212; Trading Journal &amp; Risk Analysis System</text></g><!--class User--><g class="entity" data-qualified-name="User" data-source-line="8" id="ent0002"><rect fill="#F1F1F1" height="162.0781" rx="2.5" ry="2.5" style="stroke:#181818;stroke-width:0.5;" width="206.291" x="413.23" y="52.4469"/><ellipse cx="496.1704" cy="68.4469" fill="#ADD1B2" rx="11" ry="11" style="stroke:#181818;stroke-width:1;"/><path d="M499.1392,74.0875 Q498.5611,74.3844 497.9204,74.525 Q497.2798,74.6813 496.5767,74.6813 Q494.0767,74.6813 492.7486,73.0406 Q491.4361,71.3844 491.4361,68.2594 Q491.4361,65.1344 492.7486,63.4781 Q494.0767,61.8219 496.5767,61.8219 Q497.2798,61.8219 497.9204,61.9781 Q498.5767,62.1344 499.1392,62.4313 L499.1392,65.15 Q498.5142,64.5719 497.9204,64.3063 Q497.3267,64.025 496.7017,64.025 Q495.3579,64.025 494.6704,65.1031 Q493.9829,66.1656 493.9829,68.2594 Q493.9829,70.3531 494.6704,71.4313 Q495.3579,72.4938 496.7017,72.4938 Q497.3267,72.4938 497.9204,72.2281 Q498.5142,71.9469 499.1392,71.3688 L499.1392,74.0875 Z " fill="#000000"/><text fill="#000000" font-family="sans-serif" font-size="14" lengthAdjust="spacing" textLength="31.9102" x="516.6704" y="73.2936">User</text><line style="stroke:#181818;stroke-width:0.5;" x1="414.23" x2="618.521" y1="84.4469" y2="84.4469"/><text fill="#000000" font-family="sans-serif" font-size="14" lengthAdjust="spacing" textLength="69.0771" x="419.23" y="101.442">+id: UUID</text><text fill="#000000" font-family="sans-serif" font-size="14" lengthAdjust="spacing" textLength="99.6953" x="419.23" y="117.7389">+email: string</text><text fill="#000000" font-family="sans-serif" font-size="14" lengthAdjust="spacing" textLength="194.291" x="419.23" y="134.0357">+password: string (hashed)</text><text fill="#000000" font-family="sans-serif" font-size="14" lengthAdjust="spacing" textLength="171.1172" x="419.23" y="150.3326">+created_at: timestamp</text><line style="stroke:#181818;stroke-width:1;" x1="414.23" x2="618.521" y1="157.6344" y2="157.6344"/><text fill="#000000" font-family="sans-serif" font-size="14" lengthAdjust="spacing" textLength="76.9521" x="419.23" y="174.6295">+register()</text><text fill="#000000" font-family="sans-serif" font-size="14" lengthAdjust="spacing" textLength="56.7588" x="419.23" y="190.9264">+login()</text><text fill="#000000" font-family="sans-serif" font-size="14" lengthAdjust="spacing" textLength="66.9238" x="419.23" y="207.2232">+logout()</text></g><!--class Strategy--><g class="entity" data-qualified-name="Strategy" data-source-line="19" id="ent0003"><rect fill="#F1F1F1" height="243.5625" rx="2.5" ry="2.5" style="stroke:#181818;stroke-width:0.5;" width="187.6973" x="325.53" y="977.3669"/><ellipse cx="385.136" cy="993.3669" fill="#ADD1B2" rx="11" ry="11" style="stroke:#181818;stroke-width:1;"/><path d="M388.1047,999.0075 Q387.5266,999.3044 386.886,999.445 Q386.2453,999.6013 385.5422,999.6013 Q383.0422,999.6013 381.7141,997.9606 Q380.4016,996.3044 380.4016,993.1794 Q380.4016,990.0544 381.7141,988.3981 Q383.0422,986.7419 385.5422,986.7419 Q386.2453,986.7419 386.886,986.8981 Q387.5422,987.0544 388.1047,987.3513 L388.1047,990.07 Q387.4797,989.4919 386.886,989.2263 Q386.2922,988.945 385.6672,988.945 Q384.3235,988.945 383.636,990.0231 Q382.9485,991.0856 382.9485,993.1794 Q382.9485,995.2731 383.636,996.3513 Q384.3235,997.4138 385.6672,997.4138 Q386.2922,997.4138 386.886,997.1481 Q387.4797,996.8669 388.1047,996.2888 L388.1047,999.0075 Z " fill="#000000"/><text fill="#000000" font-family="sans-serif" font-size="14" lengthAdjust="spacing" textLength="59.9854" x="405.636" y="998.2136">Strategy</text><line style="stroke:#181818;stroke-width:0.5;" x1="326.53" x2="512.2273" y1="1009.3669" y2="1009.3669"/><text fill="#000000" font-family="sans-serif" font-size="14" lengthAdjust="spacing" textLength="69.0771" x="331.53" y="1026.362">+id: UUID</text><text fill="#000000" font-family="sans-serif" font-size="14" lengthAdjust="spacing" textLength="106.6133" x="331.53" y="1042.6589">+user_id: UUID</text><text fill="#000000" font-family="sans-serif" font-size="14" lengthAdjust="spacing" textLength="100.7891" x="331.53" y="1058.9557">+name: string</text><text fill="#000000" font-family="sans-serif" font-size="14" lengthAdjust="spacing" textLength="138.9268" x="331.53" y="1075.2526">+description: string</text><text fill="#000000" font-family="sans-serif" font-size="14" lengthAdjust="spacing" textLength="95.5117" x="331.53" y="1091.5495">+rules: string</text><text fill="#000000" font-family="sans-serif" font-size="14" lengthAdjust="spacing" textLength="137.6074" x="331.53" y="1107.8464">+is_active: boolean</text><text fill="#000000" font-family="sans-serif" font-size="14" lengthAdjust="spacing" textLength="171.1172" x="331.53" y="1124.1432">+created_at: timestamp</text><text fill="#000000" font-family="sans-serif" font-size="14" lengthAdjust="spacing" textLength="175.6973" x="331.53" y="1140.4401">+updated_at: timestamp</text><line style="stroke:#181818;stroke-width:1;" x1="326.53" x2="512.2273" y1="1147.7419" y2="1147.7419"/><text fill="#000000" font-family="sans-serif" font-size="14" lengthAdjust="spacing" textLength="67.4023" x="331.53" y="1164.737">+create()</text><text fill="#000000" font-family="sans-serif" font-size="14" lengthAdjust="spacing" textLength="71.9824" x="331.53" y="1181.0339">+update()</text><text fill="#000000" font-family="sans-serif" font-size="14" lengthAdjust="spacing" textLength="66.7598" x="331.53" y="1197.3307">+delete()</text><text fill="#000000" font-family="sans-serif" font-size="14" lengthAdjust="spacing" textLength="63" x="331.53" y="1213.6276">+getAll()</text></g><!--class RiskRule--><g class="entity" data-qualified-name="RiskRule" data-source-line="35" id="ent0004"><rect fill="#F1F1F1" height="276.1563" rx="2.5" ry="2.5" style="stroke:#181818;stroke-width:0.5;" width="260.5137" x="477.12" y="461.9469"/><ellipse cx="573.0658" cy="477.9469" fill="#ADD1B2" rx="11" ry="11" style="stroke:#181818;stroke-width:1;"/><path d="M576.0346,483.5875 Q575.4564,483.8844 574.8158,484.025 Q574.1752,484.1813 573.4721,484.1813 Q570.9721,484.1813 569.6439,482.5406 Q568.3314,480.8844 568.3314,477.7594 Q568.3314,474.6344 569.6439,472.9781 Q570.9721,471.3219 573.4721,471.3219 Q574.1752,471.3219 574.8158,471.4781 Q575.4721,471.6344 576.0346,471.9313 L576.0346,474.65 Q575.4096,474.0719 574.8158,473.8063 Q574.2221,473.525 573.5971,473.525 Q572.2533,473.525 571.5658,474.6031 Q570.8783,475.6656 570.8783,477.7594 Q570.8783,479.8531 571.5658,480.9313 Q572.2533,481.9938 573.5971,481.9938 Q574.2221,481.9938 574.8158,481.7281 Q575.4096,481.4469 576.0346,480.8688 L576.0346,483.5875 Z " fill="#000000"/><text fill="#000000" font-family="sans-serif" font-size="14" lengthAdjust="spacing" textLength="60.1221" x="593.5658" y="482.7936">RiskRule</text><line style="stroke:#181818;stroke-width:0.5;" x1="478.12" x2="736.6337" y1="493.9469" y2="493.9469"/><text fill="#000000" font-family="sans-serif" font-size="14" lengthAdjust="spacing" textLength="69.0771" x="483.12" y="510.942">+id: UUID</text><text fill="#000000" font-family="sans-serif" font-size="14" lengthAdjust="spacing" textLength="106.6133" x="483.12" y="527.2389">+user_id: UUID</text><text fill="#000000" font-family="sans-serif" font-size="14" lengthAdjust="spacing" textLength="213.2197" x="483.12" y="543.5357">+max_risk_per_trade: decimal</text><text fill="#000000" font-family="sans-serif" font-size="14" lengthAdjust="spacing" textLength="181.166" x="483.12" y="559.8326">+max_daily_loss: decimal</text><text fill="#000000" font-family="sans-serif" font-size="14" lengthAdjust="spacing" textLength="196.5947" x="483.12" y="576.1295">+max_weekly_loss: decimal</text><text fill="#000000" font-family="sans-serif" font-size="14" lengthAdjust="spacing" textLength="210.4922" x="483.12" y="592.4264">+max_consecutive_losses: int</text><text fill="#000000" font-family="sans-serif" font-size="14" lengthAdjust="spacing" textLength="99.9209" x="483.12" y="608.7232">+notes: string</text><text fill="#000000" font-family="sans-serif" font-size="14" lengthAdjust="spacing" textLength="137.6074" x="483.12" y="625.0201">+is_active: boolean</text><text fill="#000000" font-family="sans-serif" font-size="14" lengthAdjust="spacing" textLength="171.1172" x="483.12" y="641.317">+created_at: timestamp</text><text fill="#000000" font-family="sans-serif" font-size="14" lengthAdjust="spacing" textLength="175.6973" x="483.12" y="657.6139">+updated_at: timestamp</text><line style="stroke:#181818;stroke-width:1;" x1="478.12" x2="736.6337" y1="664.9156" y2="664.9156"/><text fill="#000000" font-family="sans-serif" font-size="14" lengthAdjust="spacing" textLength="67.4023" x="483.12" y="681.9107">+create()</text><text fill="#000000" font-family="sans-serif" font-size="14" lengthAdjust="spacing" textLength="71.9824" x="483.12" y="698.2076">+update()</text><text fill="#000000" font-family="sans-serif" font-size="14" lengthAdjust="spacing" textLength="66.7598" x="483.12" y="714.5045">+delete()</text><text fill="#000000" font-family="sans-serif" font-size="14" lengthAdjust="spacing" textLength="248.5137" x="483.12" y="730.8014">+checkCompliance(trade): boolean</text></g><!--class Trade--><g class="entity" data-qualified-name="Trade" data-source-line="53" id="ent0005"><rect fill="#F1F1F1" height="634.6875" rx="2.5" ry="2.5" style="stroke:#181818;stroke-width:0.5;" width="411.0479" x="772.85" y="282.6769"/><ellipse cx="953.9306" cy="298.6769" fill="#ADD1B2" rx="11" ry="11" style="stroke:#181818;stroke-width:1;"/><path d="M956.8993,304.3175 Q956.3212,304.6144 955.6806,304.755 Q955.0399,304.9113 954.3368,304.9113 Q951.8368,304.9113 950.5087,303.2706 Q949.1962,301.6144 949.1962,298.4894 Q949.1962,295.3644 950.5087,293.7081 Q951.8368,292.0519 954.3368,292.0519 Q955.0399,292.0519 955.6806,292.2081 Q956.3368,292.3644 956.8993,292.6613 L956.8993,295.38 Q956.2743,294.8019 955.6806,294.5363 Q955.0868,294.255 954.4618,294.255 Q953.1181,294.255 952.4306,295.3331 Q951.7431,296.3956 951.7431,298.4894 Q951.7431,300.5831 952.4306,301.6613 Q953.1181,302.7238 954.4618,302.7238 Q955.0868,302.7238 955.6806,302.4581 Q956.2743,302.1769 956.8993,301.5988 L956.8993,304.3175 Z " fill="#000000"/><text fill="#000000" font-family="sans-serif" font-size="14" lengthAdjust="spacing" textLength="40.3867" x="974.4306" y="303.5236">Trade</text><line style="stroke:#181818;stroke-width:0.5;" x1="773.85" x2="1182.8979" y1="314.6769" y2="314.6769"/><text fill="#000000" font-family="sans-serif" font-size="14" lengthAdjust="spacing" textLength="69.0771" x="778.85" y="331.672">+id: UUID</text><text fill="#000000" font-family="sans-serif" font-size="14" lengthAdjust="spacing" textLength="106.6133" x="778.85" y="347.9689">+user_id: UUID</text><text fill="#000000" font-family="sans-serif" font-size="14" lengthAdjust="spacing" textLength="134.4697" x="778.85" y="364.2657">+strategy_id: UUID</text><text fill="#000000" font-family="sans-serif" font-size="14" lengthAdjust="spacing" textLength="137.874" x="778.85" y="380.5626">+instrument: string</text><text fill="#000000" font-family="sans-serif" font-size="14" lengthAdjust="spacing" textLength="242.5732" x="778.85" y="396.8595">+direction: enum {LONG, SHORT}</text><text fill="#000000" font-family="sans-serif" font-size="14" lengthAdjust="spacing" textLength="323.5381" x="778.85" y="413.1564">+status: enum {OPEN, CLOSED, CANCELLED}</text><text fill="#000000" font-family="sans-serif" font-size="14" lengthAdjust="spacing" textLength="172.0605" x="778.85" y="429.4532">+entry_time: timestamp</text><text fill="#000000" font-family="sans-serif" font-size="14" lengthAdjust="spacing" textLength="161.3213" x="778.85" y="445.7501">+exit_time: timestamp</text><text fill="#000000" font-family="sans-serif" font-size="14" lengthAdjust="spacing" textLength="399.0479" x="778.85" y="462.047">+session: enum {ASIA, LONDON, NEW_YORK, OVERLAP}</text><text fill="#000000" font-family="sans-serif" font-size="14" lengthAdjust="spacing" textLength="134.2305" x="778.85" y="478.3439">+timeframe: string</text><text fill="#000000" font-family="sans-serif" font-size="14" lengthAdjust="spacing" textLength="154.9502" x="778.85" y="494.6407">+entry_price: decimal</text><text fill="#000000" font-family="sans-serif" font-size="14" lengthAdjust="spacing" textLength="144.2109" x="778.85" y="510.9376">+exit_price: decimal</text><text fill="#000000" font-family="sans-serif" font-size="14" lengthAdjust="spacing" textLength="140.3691" x="778.85" y="527.2345">+stop_loss: decimal</text><text fill="#000000" font-family="sans-serif" font-size="14" lengthAdjust="spacing" textLength="151.3955" x="778.85" y="543.5314">+take_profit: decimal</text><text fill="#000000" font-family="sans-serif" font-size="14" lengthAdjust="spacing" textLength="165.6895" x="778.85" y="559.8282">+position_size: decimal</text><text fill="#000000" font-family="sans-serif" font-size="14" lengthAdjust="spacing" textLength="225.668" x="778.85" y="576.1251">+planned_risk_percent: decimal</text><text fill="#000000" font-family="sans-serif" font-size="14" lengthAdjust="spacing" textLength="212.1738" x="778.85" y="592.422">+actual_risk_percent: decimal</text><text fill="#000000" font-family="sans-serif" font-size="14" lengthAdjust="spacing" textLength="151.2041" x="778.85" y="608.7189">+planned_rr: decimal</text><text fill="#000000" font-family="sans-serif" font-size="14" lengthAdjust="spacing" textLength="137.71" x="778.85" y="625.0157">+actual_rr: decimal</text><text fill="#000000" font-family="sans-serif" font-size="14" lengthAdjust="spacing" textLength="129.7939" x="778.85" y="641.3126">+pnl_usd: decimal</text><text fill="#000000" font-family="sans-serif" font-size="14" lengthAdjust="spacing" textLength="110.4961" x="778.85" y="657.6095">+pnl_r: decimal</text><text fill="#000000" font-family="sans-serif" font-size="14" lengthAdjust="spacing" textLength="152.7832" x="778.85" y="673.9064">+entry_reason: string</text><text fill="#000000" font-family="sans-serif" font-size="14" lengthAdjust="spacing" textLength="142.0439" x="778.85" y="690.2032">+exit_reason: string</text><text fill="#000000" font-family="sans-serif" font-size="14" lengthAdjust="spacing" textLength="182.998" x="778.85" y="706.5001">+market_condition: string</text><text fill="#000000" font-family="sans-serif" font-size="14" lengthAdjust="spacing" textLength="171.4385" x="778.85" y="722.797">+setup_quality: int [1-5]</text><text fill="#000000" font-family="sans-serif" font-size="14" lengthAdjust="spacing" textLength="173.4619" x="778.85" y="739.0939">+emotional_state: enum</text><text fill="#000000" font-family="sans-serif" font-size="14" lengthAdjust="spacing" textLength="172.8877" x="778.85" y="755.3907">+followed_plan: boolean</text><text fill="#000000" font-family="sans-serif" font-size="14" lengthAdjust="spacing" textLength="201.9199" x="778.85" y="771.6876">+psychological_notes: string</text><text fill="#000000" font-family="sans-serif" font-size="14" lengthAdjust="spacing" textLength="159.1611" x="778.85" y="787.9845">+is_reviewed: boolean</text><text fill="#000000" font-family="sans-serif" font-size="14" lengthAdjust="spacing" textLength="171.1172" x="778.85" y="804.2814">+created_at: timestamp</text><text fill="#000000" font-family="sans-serif" font-size="14" lengthAdjust="spacing" textLength="175.6973" x="778.85" y="820.5782">+updated_at: timestamp</text><line style="stroke:#181818;stroke-width:1;" x1="773.85" x2="1182.8979" y1="827.88" y2="827.88"/><text fill="#000000" font-family="sans-serif" font-size="14" lengthAdjust="spacing" textLength="67.4023" x="778.85" y="844.8751">+create()</text><text fill="#000000" font-family="sans-serif" font-size="14" lengthAdjust="spacing" textLength="71.9824" x="778.85" y="861.172">+update()</text><text fill="#000000" font-family="sans-serif" font-size="14" lengthAdjust="spacing" textLength="66.7598" x="778.85" y="877.4689">+delete()</text><text fill="#000000" font-family="sans-serif" font-size="14" lengthAdjust="spacing" textLength="111.0771" x="778.85" y="893.7657">+calculatePnL()</text><text fill="#000000" font-family="sans-serif" font-size="14" lengthAdjust="spacing" textLength="105.417" x="778.85" y="910.0626">+calculateRR()</text></g><!--class TradeError--><g class="entity" data-qualified-name="TradeError" data-source-line="93" id="ent0006"><rect fill="#F1F1F1" height="194.6719" rx="2.5" ry="2.5" style="stroke:#181818;stroke-width:0.5;" width="183.1172" x="1237.82" y="1001.8069"/><ellipse cx="1287.5959" cy="1017.8069" fill="#ADD1B2" rx="11" ry="11" style="stroke:#181818;stroke-width:1;"/><path d="M1290.5646,1023.4475 Q1289.9865,1023.7444 1289.3459,1023.885 Q1288.7053,1024.0413 1288.0021,1024.0413 Q1285.5021,1024.0413 1284.174,1022.4006 Q1282.8615,1020.7444 1282.8615,1017.6194 Q1282.8615,1014.4944 1284.174,1012.8381 Q1285.5021,1011.1819 1288.0021,1011.1819 Q1288.7053,1011.1819 1289.3459,1011.3381 Q1290.0021,1011.4944 1290.5646,1011.7913 L1290.5646,1014.51 Q1289.9396,1013.9319 1289.3459,1013.6663 Q1288.7521,1013.385 1288.1271,1013.385 Q1286.7834,1013.385 1286.0959,1014.4631 Q1285.4084,1015.5256 1285.4084,1017.6194 Q1285.4084,1019.7131 1286.0959,1020.7913 Q1286.7834,1021.8538 1288.1271,1021.8538 Q1288.7521,1021.8538 1289.3459,1021.5881 Q1289.9396,1021.3069 1290.5646,1020.7288 L1290.5646,1023.4475 Z " fill="#000000"/><text fill="#000000" font-family="sans-serif" font-size="14" lengthAdjust="spacing" textLength="75.0654" x="1308.0959" y="1022.6536">TradeError</text><line style="stroke:#181818;stroke-width:0.5;" x1="1238.82" x2="1419.9372" y1="1033.8069" y2="1033.8069"/><text fill="#000000" font-family="sans-serif" font-size="14" lengthAdjust="spacing" textLength="69.0771" x="1243.82" y="1050.802">+id: UUID</text><text fill="#000000" font-family="sans-serif" font-size="14" lengthAdjust="spacing" textLength="113.4014" x="1243.82" y="1067.0989">+trade_id: UUID</text><text fill="#000000" font-family="sans-serif" font-size="14" lengthAdjust="spacing" textLength="106.6133" x="1243.82" y="1083.3957">+user_id: UUID</text><text fill="#000000" font-family="sans-serif" font-size="14" lengthAdjust="spacing" textLength="133.6152" x="1243.82" y="1099.6926">+error_type: enum</text><text fill="#000000" font-family="sans-serif" font-size="14" lengthAdjust="spacing" textLength="138.9268" x="1243.82" y="1115.9895">+description: string</text><text fill="#000000" font-family="sans-serif" font-size="14" lengthAdjust="spacing" textLength="171.1172" x="1243.82" y="1132.2864">+created_at: timestamp</text><line style="stroke:#181818;stroke-width:1;" x1="1238.82" x2="1419.9372" y1="1139.5881" y2="1139.5881"/><text fill="#000000" font-family="sans-serif" font-size="14" lengthAdjust="spacing" textLength="67.4023" x="1243.82" y="1156.5832">+create()</text><text fill="#000000" font-family="sans-serif" font-size="14" lengthAdjust="spacing" textLength="66.7598" x="1243.82" y="1172.8801">+delete()</text><text fill="#000000" font-family="sans-serif" font-size="14" lengthAdjust="spacing" textLength="103.9199" x="1243.82" y="1189.177">+getByTrade()</text></g><!--class TradeTag--><g class="entity" data-qualified-name="TradeTag" data-source-line="106" id="ent0007"><rect fill="#F1F1F1" height="178.375" rx="2.5" ry="2.5" style="stroke:#181818;stroke-width:0.5;" width="183.1172" x="547.82" y="1009.9569"/><ellipse cx="601.9264" cy="1025.9569" fill="#ADD1B2" rx="11" ry="11" style="stroke:#181818;stroke-width:1;"/><path d="M604.8952,1031.5975 Q604.3171,1031.8944 603.6764,1032.035 Q603.0358,1032.1913 602.3327,1032.1913 Q599.8327,1032.1913 598.5046,1030.5506 Q597.1921,1028.8944 597.1921,1025.7694 Q597.1921,1022.6444 598.5046,1020.9881 Q599.8327,1019.3319 602.3327,1019.3319 Q603.0358,1019.3319 603.6764,1019.4881 Q604.3327,1019.6444 604.8952,1019.9413 L604.8952,1022.66 Q604.2702,1022.0819 603.6764,1021.8163 Q603.0827,1021.535 602.4577,1021.535 Q601.1139,1021.535 600.4264,1022.6131 Q599.7389,1023.6756 599.7389,1025.7694 Q599.7389,1027.8631 600.4264,1028.9413 Q601.1139,1030.0038 602.4577,1030.0038 Q603.0827,1030.0038 603.6764,1029.7381 Q604.2702,1029.4569 604.8952,1028.8788 L604.8952,1031.5975 Z " fill="#000000"/><text fill="#000000" font-family="sans-serif" font-size="14" lengthAdjust="spacing" textLength="66.4043" x="622.4264" y="1030.8036">TradeTag</text><line style="stroke:#181818;stroke-width:0.5;" x1="548.82" x2="729.9372" y1="1041.9569" y2="1041.9569"/><text fill="#000000" font-family="sans-serif" font-size="14" lengthAdjust="spacing" textLength="69.0771" x="553.82" y="1058.952">+id: UUID</text><text fill="#000000" font-family="sans-serif" font-size="14" lengthAdjust="spacing" textLength="113.4014" x="553.82" y="1075.2489">+trade_id: UUID</text><text fill="#000000" font-family="sans-serif" font-size="14" lengthAdjust="spacing" textLength="106.6133" x="553.82" y="1091.5457">+user_id: UUID</text><text fill="#000000" font-family="sans-serif" font-size="14" lengthAdjust="spacing" textLength="84.041" x="553.82" y="1107.8426">+tag: string</text><text fill="#000000" font-family="sans-serif" font-size="14" lengthAdjust="spacing" textLength="171.1172" x="553.82" y="1124.1395">+created_at: timestamp</text><line style="stroke:#181818;stroke-width:1;" x1="548.82" x2="729.9372" y1="1131.4413" y2="1131.4413"/><text fill="#000000" font-family="sans-serif" font-size="14" lengthAdjust="spacing" textLength="67.4023" x="553.82" y="1148.4364">+create()</text><text fill="#000000" font-family="sans-serif" font-size="14" lengthAdjust="spacing" textLength="66.7598" x="553.82" y="1164.7332">+delete()</text><text fill="#000000" font-family="sans-serif" font-size="14" lengthAdjust="spacing" textLength="103.9199" x="553.82" y="1181.0301">+getByTrade()</text></g><!--class Attachment--><g class="entity" data-qualified-name="Attachment" data-source-line="118" id="ent0008"><rect fill="#F1F1F1" height="243.5625" rx="2.5" ry="2.5" style="stroke:#181818;stroke-width:0.5;" width="437.4004" x="765.67" y="977.3669"/><ellipse cx="938.961" cy="993.3669" fill="#ADD1B2" rx="11" ry="11" style="stroke:#181818;stroke-width:1;"/><path d="M941.9298,999.0075 Q941.3516,999.3044 940.711,999.445 Q940.0704,999.6013 939.3673,999.6013 Q936.8673,999.6013 935.5391,997.9606 Q934.2266,996.3044 934.2266,993.1794 Q934.2266,990.0544 935.5391,988.3981 Q936.8673,986.7419 939.3673,986.7419 Q940.0704,986.7419 940.711,986.8981 Q941.3673,987.0544 941.9298,987.3513 L941.9298,990.07 Q941.3048,989.4919 940.711,989.2263 Q940.1173,988.945 939.4923,988.945 Q938.1485,988.945 937.461,990.0231 Q936.7735,991.0856 936.7735,993.1794 Q936.7735,995.2731 937.461,996.3513 Q938.1485,997.4138 939.4923,997.4138 Q940.1173,997.4138 940.711,997.1481 Q941.3048,996.8669 941.9298,996.2888 L941.9298,999.0075 Z " fill="#000000"/><text fill="#000000" font-family="sans-serif" font-size="14" lengthAdjust="spacing" textLength="82.3184" x="959.461" y="998.2136">Attachment</text><line style="stroke:#181818;stroke-width:0.5;" x1="766.67" x2="1202.0704" y1="1009.3669" y2="1009.3669"/><text fill="#000000" font-family="sans-serif" font-size="14" lengthAdjust="spacing" textLength="69.0771" x="771.67" y="1026.362">+id: UUID</text><text fill="#000000" font-family="sans-serif" font-size="14" lengthAdjust="spacing" textLength="113.4014" x="771.67" y="1042.6589">+trade_id: UUID</text><text fill="#000000" font-family="sans-serif" font-size="14" lengthAdjust="spacing" textLength="106.6133" x="771.67" y="1058.9557">+user_id: UUID</text><text fill="#000000" font-family="sans-serif" font-size="14" lengthAdjust="spacing" textLength="129.1104" x="771.67" y="1075.2526">+file_name: string</text><text fill="#000000" font-family="sans-serif" font-size="14" lengthAdjust="spacing" textLength="121.2354" x="771.67" y="1091.5495">+file_path: string</text><text fill="#000000" font-family="sans-serif" font-size="14" lengthAdjust="spacing" textLength="94.6162" x="771.67" y="1107.8464">+file_size: int</text><text fill="#000000" font-family="sans-serif" font-size="14" lengthAdjust="spacing" textLength="139.1387" x="771.67" y="1124.1432">+mime_type: string</text><text fill="#000000" font-family="sans-serif" font-size="14" lengthAdjust="spacing" textLength="425.4004" x="771.67" y="1140.4401">+attachment_type: enum {BEFORE, AFTER, DURING, NOTE}</text><text fill="#000000" font-family="sans-serif" font-size="14" lengthAdjust="spacing" textLength="171.1172" x="771.67" y="1156.737">+created_at: timestamp</text><line style="stroke:#181818;stroke-width:1;" x1="766.67" x2="1202.0704" y1="1164.0388" y2="1164.0388"/><text fill="#000000" font-family="sans-serif" font-size="14" lengthAdjust="spacing" textLength="70.335" x="771.67" y="1181.0339">+upload()</text><text fill="#000000" font-family="sans-serif" font-size="14" lengthAdjust="spacing" textLength="66.7598" x="771.67" y="1197.3307">+delete()</text><text fill="#000000" font-family="sans-serif" font-size="14" lengthAdjust="spacing" textLength="113.5723" x="771.67" y="1213.6276">+getSignedUrl()</text></g><!--class TradeReview--><g class="entity" data-qualified-name="TradeReview" data-source-line="134" id="ent0009"><rect fill="#F1F1F1" height="325.0469" rx="2.5" ry="2.5" style="stroke:#181818;stroke-width:0.5;" width="364.748" x="7" y="437.4969"/><ellipse cx="139.6411" cy="453.4969" fill="#ADD1B2" rx="11" ry="11" style="stroke:#181818;stroke-width:1;"/><path d="M142.6099,459.1375 Q142.0317,459.4344 141.3911,459.575 Q140.7505,459.7313 140.0474,459.7313 Q137.5474,459.7313 136.2192,458.0906 Q134.9067,456.4344 134.9067,453.3094 Q134.9067,450.1844 136.2192,448.5281 Q137.5474,446.8719 140.0474,446.8719 Q140.7505,446.8719 141.3911,447.0281 Q142.0474,447.1844 142.6099,447.4813 L142.6099,450.2 Q141.9849,449.6219 141.3911,449.3563 Q140.7974,449.075 140.1724,449.075 Q138.8286,449.075 138.1411,450.1531 Q137.4536,451.2156 137.4536,453.3094 Q137.4536,455.4031 138.1411,456.4813 Q138.8286,457.5438 140.1724,457.5438 Q140.7974,457.5438 141.3911,457.2781 Q141.9849,456.9969 142.6099,456.4188 L142.6099,459.1375 Z " fill="#000000"/><text fill="#000000" font-family="sans-serif" font-size="14" lengthAdjust="spacing" textLength="90.9658" x="160.1411" y="458.3436">TradeReview</text><line style="stroke:#181818;stroke-width:0.5;" x1="8" x2="370.748" y1="469.4969" y2="469.4969"/><text fill="#000000" font-family="sans-serif" font-size="14" lengthAdjust="spacing" textLength="69.0771" x="13" y="486.492">+id: UUID</text><text fill="#000000" font-family="sans-serif" font-size="14" lengthAdjust="spacing" textLength="106.6133" x="13" y="502.7889">+user_id: UUID</text><text fill="#000000" font-family="sans-serif" font-size="14" lengthAdjust="spacing" textLength="352.748" x="13" y="519.0857">+review_type: enum {DAILY, WEEKLY, MONTHLY}</text><text fill="#000000" font-family="sans-serif" font-size="14" lengthAdjust="spacing" textLength="136.6709" x="13" y="535.3826">+period_start: date</text><text fill="#000000" font-family="sans-serif" font-size="14" lengthAdjust="spacing" textLength="130.4365" x="13" y="551.6795">+period_end: date</text><text fill="#000000" font-family="sans-serif" font-size="14" lengthAdjust="spacing" textLength="122.7803" x="13" y="567.9764">+total_trades: int</text><text fill="#000000" font-family="sans-serif" font-size="14" lengthAdjust="spacing" textLength="135.7412" x="13" y="584.2732">+win_rate: decimal</text><text fill="#000000" font-family="sans-serif" font-size="14" lengthAdjust="spacing" textLength="129.7939" x="13" y="600.5701">+pnl_usd: decimal</text><text fill="#000000" font-family="sans-serif" font-size="14" lengthAdjust="spacing" textLength="110.4961" x="13" y="616.867">+pnl_r: decimal</text><text fill="#000000" font-family="sans-serif" font-size="14" lengthAdjust="spacing" textLength="173.1201" x="13" y="633.1639">+lessons_learned: string</text><text fill="#000000" font-family="sans-serif" font-size="14" lengthAdjust="spacing" textLength="199.5479" x="13" y="649.4607">+improvement_goals: string</text><text fill="#000000" font-family="sans-serif" font-size="14" lengthAdjust="spacing" textLength="249.3955" x="13" y="665.7576">+risk_compliance_percent: decimal</text><text fill="#000000" font-family="sans-serif" font-size="14" lengthAdjust="spacing" textLength="173.4414" x="13" y="682.0545">+overall_rating: int [1-5]</text><text fill="#000000" font-family="sans-serif" font-size="14" lengthAdjust="spacing" textLength="171.1172" x="13" y="698.3514">+created_at: timestamp</text><line style="stroke:#181818;stroke-width:1;" x1="8" x2="370.748" y1="705.6531" y2="705.6531"/><text fill="#000000" font-family="sans-serif" font-size="14" lengthAdjust="spacing" textLength="67.4023" x="13" y="722.6482">+create()</text><text fill="#000000" font-family="sans-serif" font-size="14" lengthAdjust="spacing" textLength="71.9824" x="13" y="738.9451">+update()</text><text fill="#000000" font-family="sans-serif" font-size="14" lengthAdjust="spacing" textLength="66.7598" x="13" y="755.242">+delete()</text></g><!--class AnalyticsEngine--><g class="entity" data-qualified-name="AnalyticsEngine" data-source-line="155" id="ent0010"><rect fill="#F1F1F1" height="178.375" rx="2.5" ry="2.5" style="stroke:#181818;stroke-width:0.5;" width="420.1807" x="768.28" y="44.2969"/><ellipse cx="918.3425" cy="60.2969" fill="#ADD1B2" rx="11" ry="11" style="stroke:#181818;stroke-width:1;"/><path d="M921.3113,65.9375 Q920.7331,66.2344 920.0925,66.375 Q919.4519,66.5313 918.7488,66.5313 Q916.2488,66.5313 914.9206,64.8906 Q913.6081,63.2344 913.6081,60.1094 Q913.6081,56.9844 914.9206,55.3281 Q916.2488,53.6719 918.7488,53.6719 Q919.4519,53.6719 920.0925,53.8281 Q920.7488,53.9844 921.3113,54.2813 L921.3113,57 Q920.6863,56.4219 920.0925,56.1563 Q919.4988,55.875 918.8738,55.875 Q917.53,55.875 916.8425,56.9531 Q916.155,58.0156 916.155,60.1094 Q916.155,62.2031 916.8425,63.2813 Q917.53,64.3438 918.8738,64.3438 Q919.4988,64.3438 920.0925,64.0781 Q920.6863,63.7969 921.3113,63.2188 L921.3113,65.9375 Z " fill="#000000"/><text fill="#000000" font-family="sans-serif" font-size="14" lengthAdjust="spacing" textLength="111.5557" x="938.8425" y="65.1436">AnalyticsEngine</text><line style="stroke:#181818;stroke-width:0.5;" x1="769.28" x2="1187.4607" y1="76.2969" y2="76.2969"/><line style="stroke:#181818;stroke-width:1;" x1="769.28" x2="1187.4607" y1="84.2969" y2="84.2969"/><text fill="#000000" font-family="sans-serif" font-size="14" lengthAdjust="spacing" textLength="212.5703" x="774.28" y="101.292">+getWinRate(userId): decimal</text><text fill="#000000" font-family="sans-serif" font-size="14" lengthAdjust="spacing" textLength="234.7666" x="774.28" y="117.5889">+getProfitFactor(userId): decimal</text><text fill="#000000" font-family="sans-serif" font-size="14" lengthAdjust="spacing" textLength="234.8076" x="774.28" y="133.8857">+getExpectancy(userId): decimal</text><text fill="#000000" font-family="sans-serif" font-size="14" lengthAdjust="spacing" textLength="256.8398" x="774.28" y="150.1826">+getMaxDrawdown(userId): decimal</text><text fill="#000000" font-family="sans-serif" font-size="14" lengthAdjust="spacing" textLength="267.7158" x="774.28" y="166.4795">+getMonthlyPnL(userId): MonthlyPnl[]</text><text fill="#000000" font-family="sans-serif" font-size="14" lengthAdjust="spacing" textLength="408.1807" x="774.28" y="182.7764">+getStrategyPerformance(userId): StrategyPerformance[]</text><text fill="#000000" font-family="sans-serif" font-size="14" lengthAdjust="spacing" textLength="395.042" x="774.28" y="199.0732">+getSessionPerformance(userId): SessionPerformance[]</text><text fill="#000000" font-family="sans-serif" font-size="14" lengthAdjust="spacing" textLength="294.0068" x="774.28" y="215.3701">+getErrorAnalysis(userId): ErrorAnalysis[]</text></g><!--link User to Trade--><g class="link" data-entity-1="ent0002" data-entity-2="ent0005" data-link-type="dependency" data-source-line="167" id="lnk11"><path codeLine="167" d="M572.05,214.9569 C572.05,280.2169 572.05,360.9269 572.05,360.9269 C572.05,360.9269 665.85,360.9269 766.53,360.9269" fill="none" id="User-to-Trade" style="stroke:#181818;stroke-width:1;"/><polygon fill="#181818" points="772.53,360.9269,763.53,356.9269,767.53,360.9269,763.53,364.9269,772.53,360.9269" style="stroke:#181818;stroke-width:1;"/><text fill="#000000" font-family="sans-serif" font-size="13" lengthAdjust="spacing" textLength="33.5981" x="565.31" y="356.9938">owns</text><text fill="#000000" font-family="sans-serif" font-size="13" lengthAdjust="spacing" textLength="8.271" x="568.5024" y="234.6754">1</text><text fill="#000000" font-family="sans-serif" font-size="13" lengthAdjust="spacing" textLength="6.5" x="758.3818" y="348.3638">*</text></g><!--link User to Strategy--><g class="link" data-entity-1="ent0002" data-entity-2="ent0003" data-link-type="dependency" data-source-line="168" id="lnk12"><path codeLine="168" d="M455.82,214.9869 C455.82,384.7069 455.82,770.8569 455.82,970.9369" fill="none" id="User-to-Strategy" style="stroke:#181818;stroke-width:1;"/><polygon fill="#181818" points="455.82,976.9369,459.82,967.9369,455.82,971.9369,451.82,967.9369,455.82,976.9369" style="stroke:#181818;stroke-width:1;"/><text fill="#000000" font-family="sans-serif" font-size="13" lengthAdjust="spacing" textLength="47.4487" x="407.82" y="592.0238">defines</text><text fill="#000000" font-family="sans-serif" font-size="13" lengthAdjust="spacing" textLength="8.271" x="442.2839" y="234.708">1</text><text fill="#000000" font-family="sans-serif" font-size="13" lengthAdjust="spacing" textLength="6.5" x="451.8731" y="966.1035">*</text></g><!--link User to RiskRule--><g class="link" data-entity-1="ent0002" data-entity-2="ent0004" data-link-type="dependency" data-source-line="169" id="lnk13"><path codeLine="169" d="M524.58,215.0169 C524.58,283.0569 524.58,375.5269 524.58,455.8469" fill="none" id="User-to-RiskRule" style="stroke:#181818;stroke-width:1;"/><polygon fill="#181818" points="524.58,461.8469,528.58,452.8469,524.58,456.8469,520.58,452.8469,524.58,461.8469" style="stroke:#181818;stroke-width:1;"/><text fill="#000000" font-family="sans-serif" font-size="13" lengthAdjust="spacing" textLength="68.1357" x="455.58" y="334.5038">configures</text><text fill="#000000" font-family="sans-serif" font-size="13" lengthAdjust="spacing" textLength="8.271" x="516.9394" y="234.4621">1</text><text fill="#000000" font-family="sans-serif" font-size="13" lengthAdjust="spacing" textLength="6.5" x="513.9017" y="450.9506">*</text></g><!--link User to TradeReview--><g class="link" data-entity-1="ent0002" data-entity-2="ent0009" data-link-type="dependency" data-source-line="170" id="lnk14"><path codeLine="170" d="M434.52,214.9769 C434.52,308.7369 434.52,449.9269 434.52,449.9269 C434.52,449.9269 413.82,449.9269 378.03,449.9269" fill="none" id="User-to-TradeReview" style="stroke:#181818;stroke-width:1;"/><polygon fill="#181818" points="372.03,449.9269,381.03,453.9269,377.03,449.9269,381.03,445.9269,372.03,449.9269" style="stroke:#181818;stroke-width:1;"/><text fill="#000000" font-family="sans-serif" font-size="13" lengthAdjust="spacing" textLength="39.457" x="394.52" y="359.7638">writes</text><text fill="#000000" font-family="sans-serif" font-size="13" lengthAdjust="spacing" textLength="8.271" x="419.1534" y="234.6971">1</text><text fill="#000000" font-family="sans-serif" font-size="13" lengthAdjust="spacing" textLength="6.5" x="379.8729" y="440.3481">*</text></g><!--link Trade to Strategy--><g class="link" data-entity-1="ent0005" data-entity-2="ent0003" data-link-type="dependency" data-source-line="171" id="lnk15"><path codeLine="171" d="M772.4,814.9269 C640.98,814.9269 495.17,814.9269 495.17,814.9269 C495.17,814.9269 495.17,893.9269 495.17,970.9569" fill="none" id="Trade-to-Strategy" style="stroke:#181818;stroke-width:1;"/><polygon fill="#181818" points="495.17,976.9569,499.17,967.9569,495.17,971.9569,491.17,967.9569,495.17,976.9569" style="stroke:#181818;stroke-width:1;"/><text fill="#000000" font-family="sans-serif" font-size="13" lengthAdjust="spacing" textLength="29.7832" x="522.77" y="810.9938">uses</text><text fill="#000000" font-family="sans-serif" font-size="13" lengthAdjust="spacing" textLength="6.5" x="758.2467" y="820.0982">*</text><text fill="#000000" font-family="sans-serif" font-size="13" lengthAdjust="spacing" textLength="24.8066" x="475.0819" y="966.1248">0..1</text></g><!--link Trade to TradeError--><g class="link" data-entity-1="ent0005" data-entity-2="ent0006" data-link-type="dependency" data-source-line="172" id="lnk16"><path codeLine="172" d="M1184.06,600.9269 C1246.47,600.9269 1298.85,600.9269 1298.85,600.9269 C1298.85,600.9269 1298.85,850.5669 1298.85,995.6069" fill="none" id="Trade-to-TradeError" style="stroke:#181818;stroke-width:1;"/><polygon fill="#181818" points="1298.85,1001.6069,1302.85,992.6069,1298.85,996.6069,1294.85,992.6069,1298.85,1001.6069" style="stroke:#181818;stroke-width:1;"/><text fill="#000000" font-family="sans-serif" font-size="13" lengthAdjust="spacing" textLength="22.9785" x="1275.85" y="739.9338">has</text><text fill="#000000" font-family="sans-serif" font-size="13" lengthAdjust="spacing" textLength="8.271" x="1191.6005" y="597.7592">1</text><text fill="#000000" font-family="sans-serif" font-size="13" lengthAdjust="spacing" textLength="6.5" x="1290.3021" y="990.637">*</text></g><!--link Trade to TradeTag--><g class="link" data-entity-1="ent0005" data-entity-2="ent0007" data-link-type="dependency" data-source-line="173" id="lnk17"><path codeLine="173" d="M772.38,865.9269 C701.4,865.9269 639.37,865.9269 639.37,865.9269 C639.37,865.9269 639.37,937.8769 639.37,1003.6469" fill="none" id="Trade-to-TradeTag" style="stroke:#181818;stroke-width:1;"/><polygon fill="#181818" points="639.37,1009.6469,643.37,1000.6469,639.37,1004.6469,635.37,1000.6469,639.37,1009.6469" style="stroke:#181818;stroke-width:1;"/><text fill="#000000" font-family="sans-serif" font-size="13" lengthAdjust="spacing" textLength="77.5303" x="561.37" y="867.3438">tagged with</text><text fill="#000000" font-family="sans-serif" font-size="13" lengthAdjust="spacing" textLength="8.271" x="756.8382" y="872.2826">1</text><text fill="#000000" font-family="sans-serif" font-size="13" lengthAdjust="spacing" textLength="6.5" x="633.1502" y="998.9896">*</text></g><!--link Trade to Attachment--><g class="link" data-entity-1="ent0005" data-entity-2="ent0008" data-link-type="dependency" data-source-line="174" id="lnk18"><path codeLine="174" d="M978.37,917.5369 C978.37,938.2069 978.37,952.1969 978.37,970.8969" fill="none" id="Trade-to-Attachment" style="stroke:#181818;stroke-width:1;"/><polygon fill="#181818" points="978.37,976.8969,982.37,967.8969,978.37,971.8969,974.37,967.8969,978.37,976.8969" style="stroke:#181818;stroke-width:1;"/><text fill="#000000" font-family="sans-serif" font-size="13" lengthAdjust="spacing" textLength="22.9785" x="979.37" y="943.2838">has</text><text fill="#000000" font-family="sans-serif" font-size="13" lengthAdjust="spacing" textLength="8.271" x="970.2793" y="937.2229">1</text><text fill="#000000" font-family="sans-serif" font-size="13" lengthAdjust="spacing" textLength="6.5" x="971.8641" y="966.4664">*</text></g><!--link AnalyticsEngine to Trade--><g class="link" data-entity-1="ent0010" data-entity-2="ent0005" data-link-type="dependency" data-source-line="175" id="lnk19"><path codeLine="175" d="M978.37,223.1669 C978.37,241.2969 978.37,255.3169 978.37,276.4069" fill="none" id="AnalyticsEngine-to-Trade" style="stroke:#181818;stroke-width:1;stroke-dasharray:7,7;"/><polygon fill="#181818" points="978.37,282.4069,982.37,273.4069,978.37,277.4069,974.37,273.4069,978.37,282.4069" style="stroke:#181818;stroke-width:1;"/><text fill="#000000" font-family="sans-serif" font-size="13" lengthAdjust="spacing" textLength="57.0718" x="920.37" y="248.8538">analyzes</text></g><!--link AnalyticsEngine to TradeError--><g class="link" data-entity-1="ent0010" data-entity-2="ent0006" data-link-type="dependency" data-source-line="176" id="lnk20"><path codeLine="176" d="M1188.94,133.9269 C1277.28,133.9269 1359.89,133.9269 1359.89,133.9269 C1359.89,133.9269 1359.89,750.6569 1359.89,995.7269" fill="none" id="AnalyticsEngine-to-TradeError" style="stroke:#181818;stroke-width:1;stroke-dasharray:7,7;"/><polygon fill="#181818" points="1359.89,1001.7269,1363.89,992.7269,1359.89,996.7269,1355.89,992.7269,1359.89,1001.7269" style="stroke:#181818;stroke-width:1;"/><text fill="#000000" font-family="sans-serif" font-size="13" lengthAdjust="spacing" textLength="57.0718" x="1301.89" y="478.4238">analyzes</text></g><!--link AnalyticsEngine to RiskRule--><g class="link" data-entity-1="ent0010" data-entity-2="ent0004" data-link-type="dependency" data-source-line="177" id="lnk21"><path codeLine="177" d="M768.12,218.9269 C717.93,218.9269 678.58,218.9269 678.58,218.9269 C678.58,218.9269 678.58,346.6169 678.58,455.6269" fill="none" id="AnalyticsEngine-to-RiskRule" style="stroke:#181818;stroke-width:1;stroke-dasharray:7,7;"/><polygon fill="#181818" points="678.58,461.6269,682.58,452.6269,678.58,456.6269,674.58,452.6269,678.58,461.6269" style="stroke:#181818;stroke-width:1;"/><text fill="#000000" font-family="sans-serif" font-size="13" lengthAdjust="spacing" textLength="111.0078" x="566.58" y="291.5738">validates against</text></g><?plantuml-src nLTHRzis47xtho0oO4XM9sWUzkA70gujhrvTsv2T1K5H28nqbWbJf4PISTGWG7_4Vk5-oOvKB4kMx6K5jY4F5kw-unsFTzzTz8Q9b2gQa7iQRc8bCn4D99UA_33ox5z7bmYzff7SCX6J4UKQAfgGKwtxnYXsdnaOXr8is5SWRoiGpWIOF0KYbLdBJiSmmu4Ch24PCXfRp9_V_Y1BHIFhubUPAK4v-P7uJ6z87xzppJHPvDf0qkaub-H6Wo9F7KBUiAX7Rcx6G_iD2MMyHpJ68s8hI16xbIhQoSZvckerH1TM6IgW1gA0cXunB05jQ9AYulBIQXN433sgSuVbCcQY_9IPmU_dNJ0Be_2WE6y6b66OGLKWQ0BL02FGeMAfOL9KnIhZeAi2fWCQ6lQ0nlTISg3Yr0tUP6bqucg5MN6R0bbyHy1Xzns3wNDUlQLz3X_ZUiKj4_eOA8G7AIemEH667K784iftwWXVAW-urBgXsW9iZkcmmZI4cSs40zWiCM5SQgNvdtCMhY7S36IISaP52EVkvXTxxsKgRQs_9e_wfR1gGYPGd2KWJAsGc8AmA2CGMKAU9hFfBrso-33pby_5MTHaUgUTpRrfbmmciuKtnD_-TE1D9jxG8V5abGSs1GSPWaTcskJu2hhYkRyOzxi4_Gzdw6FgtGPtC_zZbyn-y_n9V-vyMFkLEcY6md6gM5Yl5-UtATP6fiqgCNG329OhPchoL6fcynDePAYwXbCXyE5t5Hkwr5O0M4KPvSVrvG6grQmkJGKFCXqrP7LKaGgiELqd1fUAfZYXQWF6TaV43hb4WydIu7SCXPdSTGlvV7tvyvU2CAM5OvIsFA1uGQjOISxb5kzaxrRhdrJduLfQFWpHhAtf53mmGDl_hEqe3pEEghcO74XylyfWhkqyfMJBw72z6fpiHh2MWPrb-pmTuU_JewLwgGFEVP-x81jHBsdyNJ4R6lzRSU7Of-7Qyj1tHRPY78B3SUY4AJNhXh3esXUgJp3qbuVOmsWPJ-MDoDDxRpJplIxfZvQUtoN36tziYN4wMthFVv-IBEMIHgqfMR0Oc_v6ySPZ-Qu1Ni7lHQVKmXtsnvExBhdrl8_szzDiklmmkNEH8lKm6TbELPP_CEgA54Iqbnbfi3VT8-pd8ovmWN9D_e_P29SH91mTO3Ch0L6jtnFasWTmQOybheUrDSOoPbWEn5RoH6D5ERUXeTK1Fxs-Nbl9OL-hTeiqBDIUm3sk6Bt56VYGjqpurjO-ppYwg4M7whcR9IDaSwcEORp75ASltZ4_XlX47uUARd6F5aSXKfWrposBbOXInZz_sTNTor8m1xMIAd6RHeblKUuDYp7TRjVGbMQEC7Th-DwY9aOmvjejvMVNPvZQT-JifxENFQT7yDAwgItNPfk85JvB2wPSEdi4XzkAnPbgWrNRhaUsYk5KwXJUhTh1tbvTNTUSubLAqE5PnPJe4VntuHZ4KZ9M9OrZYCYMcNKBiCAHnLc7XNXrzQxC4hMwht02j8lg9BAIiWUS-ROjDA4njNjZvoy0?></g></svg>