<?plantuml 1.2026.1?><svg xmlns="http://www.w3.org/2000/svg" xmlns:xlink="http://www.w3.org/1999/xlink" contentStyleType="text/css" data-diagram-type="SEQUENCE" height="1419px" preserveAspectRatio="none" style="width:1109px;height:1419px;background:#FEFEFE;" version="1.1" viewBox="0 0 1109 1419" width="1109px" zoomAndPan="magnify"><title>Sequence Diagram &#8212; Create Trade with Risk Validation</title><defs/><g><rect fill="#FEFEFE" height="1419" style="stroke:none;stroke-width:1;" width="1109" x="0" y="0"/><text fill="#000000" font-family="sans-serif" font-size="14" font-weight="bold" lengthAdjust="spacing" textLength="437.5342" x="331.9543" y="27.9951">Sequence Diagram &#8212; Create Trade with Risk Validation</text><rect fill="none" height="132.3359" style="stroke:#000000;stroke-width:1.5;" width="329.2832" x="10" y="1189.8438"/><g class="participant-lifeline" data-entity-uid="part1" data-qualified-name="Trader" id="part1-lifeline"><g><title>Trader</title><rect fill="#000000" fill-opacity="0.00000" height="1220.5859" width="8" x="42.0713" y="118.5938"/><line style="stroke:#181818;stroke-width:0.5;stroke-dasharray:5,5;" x1="46" x2="46" y1="118.5938" y2="1339.1797"/></g></g><g class="participant-lifeline" data-entity-uid="part2" data-qualified-name="UI" id="part2-lifeline"><g><title>UI Layer</title><rect fill="#000000" fill-opacity="0.00000" height="1220.5859" width="8" x="229.1045" y="118.5938"/><line style="stroke:#181818;stroke-width:0.5;stroke-dasharray:5,5;" x1="233.0776" x2="233.0776" y1="118.5938" y2="1339.1797"/></g></g><g class="participant-lifeline" data-entity-uid="part3" data-qualified-name="Repo" id="part3-lifeline"><g><title>Repository Layer</title><rect fill="#000000" fill-opacity="0.00000" height="1220.5859" width="8" x="493.8838" y="118.5938"/><line style="stroke:#181818;stroke-width:0.5;stroke-dasharray:5,5;" x1="497.606" x2="497.606" y1="118.5938" y2="1339.1797"/></g></g><g class="participant-lifeline" data-entity-uid="part4" data-qualified-name="Auth" id="part4-lifeline"><g><title>Supabase Auth</title><rect fill="#000000" fill-opacity="0.00000" height="1220.5859" width="8" x="630.0923" y="118.5938"/><line style="stroke:#181818;stroke-width:0.5;stroke-dasharray:5,5;" x1="633.1616" x2="633.1616" y1="118.5938" y2="1339.1797"/></g></g><g class="participant-lifeline" data-entity-uid="part5" data-qualified-name="DB" id="part5-lifeline"><g><title>Supabase DB</title><rect fill="#000000" fill-opacity="0.00000" height="1220.5859" width="8" x="753.7397" y="118.5938"/><line style="stroke:#181818;stroke-width:0.5;stroke-dasharray:5,5;" x1="757.0229" x2="757.0229" y1="118.5938" y2="1339.1797"/></g></g><g class="participant-lifeline" data-entity-uid="part6" data-qualified-name="Storage" id="part6-lifeline"><g><title>Supabase Storage</title><rect fill="#000000" fill-opacity="0.00000" height="1220.5859" width="8" x="888.3691" y="118.5938"/><line style="stroke:#181818;stroke-width:0.5;stroke-dasharray:5,5;" x1="891.4565" x2="891.4565" y1="118.5938" y2="1339.1797"/></g></g><g class="participant-lifeline" data-entity-uid="part7" data-qualified-name="Risk" id="part7-lifeline"><g><title>Risk Service</title><rect fill="#000000" fill-opacity="0.00000" height="1220.5859" width="8" x="1031.3623" y="118.5938"/><line style="stroke:#181818;stroke-width:0.5;stroke-dasharray:5,5;" x1="1035.2817" x2="1035.2817" y1="118.5938" y2="1339.1797"/></g></g><g class="participant participant-head" data-entity-uid="part1" data-qualified-name="Trader" id="part1-head"><text fill="#000000" font-family="sans-serif" font-size="14" lengthAdjust="spacing" textLength="46.1426" x="20" y="115.292">Trader</text><ellipse cx="46.0713" cy="50.7969" fill="#E2E2F0" rx="8" ry="8" style="stroke:#181818;stroke-width:0.5;"/><path d="M46.0713,58.7969 L46.0713,85.7969 M33.0713,66.7969 L59.0713,66.7969 M46.0713,85.7969 L33.0713,100.7969 M46.0713,85.7969 L59.0713,100.7969" fill="none" style="stroke:#181818;stroke-width:0.5;"/></g><g class="participant participant-tail" data-entity-uid="part1" data-qualified-name="Trader" id="part1-tail"><text fill="#000000" font-family="sans-serif" font-size="14" lengthAdjust="spacing" textLength="46.1426" x="20" y="1351.1748">Trader</text><ellipse cx="46.0713" cy="1362.9766" fill="#E2E2F0" rx="8" ry="8" style="stroke:#181818;stroke-width:0.5;"/><path d="M46.0713,1370.9766 L46.0713,1397.9766 M33.0713,1378.9766 L59.0713,1378.9766 M46.0713,1397.9766 L33.0713,1412.9766 M46.0713,1397.9766 L59.0713,1412.9766" fill="none" style="stroke:#181818;stroke-width:0.5;"/></g><g class="participant participant-head" data-entity-uid="part2" data-qualified-name="UI" id="part2-head"><rect fill="#E2E2F0" height="46.5938" rx="2.5" ry="2.5" style="stroke:#181818;stroke-width:0.5;" width="158.0537" x="154.0776" y="71"/><text fill="#000000" font-family="sans-serif" font-size="14" lengthAdjust="spacing" textLength="57.8594" x="204.1748" y="90.9951">UI Layer</text><text fill="#000000" font-family="sans-serif" font-size="14" lengthAdjust="spacing" textLength="144.0537" x="161.0776" y="107.292">(React Components)</text></g><g class="participant participant-tail" data-entity-uid="part2" data-qualified-name="UI" id="part2-tail"><rect fill="#E2E2F0" height="46.5938" rx="2.5" ry="2.5" style="stroke:#181818;stroke-width:0.5;" width="158.0537" x="154.0776" y="1338.1797"/><text fill="#000000" font-family="sans-serif" font-size="14" lengthAdjust="spacing" textLength="57.8594" x="204.1748" y="1358.1748">UI Layer</text><text fill="#000000" font-family="sans-serif" font-size="14" lengthAdjust="spacing" textLength="144.0537" x="161.0776" y="1374.4717">(React Components)</text></g><g class="participant participant-head" data-entity-uid="part3" data-qualified-name="Repo" id="part3-head"><rect fill="#E2E2F0" height="46.5938" rx="2.5" ry="2.5" style="stroke:#181818;stroke-width:0.5;" width="132.5557" x="431.606" y="71"/><text fill="#000000" font-family="sans-serif" font-size="14" lengthAdjust="spacing" textLength="118.5557" x="438.606" y="90.9951">Repository Layer</text><text fill="#000000" font-family="sans-serif" font-size="14" lengthAdjust="spacing" textLength="91.335" x="452.2163" y="107.292">(tradesRepo)</text></g><g class="participant participant-tail" data-entity-uid="part3" data-qualified-name="Repo" id="part3-tail"><rect fill="#E2E2F0" height="46.5938" rx="2.5" ry="2.5" style="stroke:#181818;stroke-width:0.5;" width="132.5557" x="431.606" y="1338.1797"/><text fill="#000000" font-family="sans-serif" font-size="14" lengthAdjust="spacing" textLength="118.5557" x="438.606" y="1358.1748">Repository Layer</text><text fill="#000000" font-family="sans-serif" font-size="14" lengthAdjust="spacing" textLength="91.335" x="452.2163" y="1374.4717">(tradesRepo)</text></g><g class="participant participant-head" data-entity-uid="part4" data-qualified-name="Auth" id="part4-head"><rect fill="#E2E2F0" height="30.2969" rx="2.5" ry="2.5" style="stroke:#181818;stroke-width:0.5;" width="119.8613" x="574.1616" y="87.2969"/><text fill="#000000" font-family="sans-serif" font-size="14" lengthAdjust="spacing" textLength="105.8613" x="581.1616" y="107.292">Supabase Auth</text></g><g class="participant participant-tail" data-entity-uid="part4" data-qualified-name="Auth" id="part4-tail"><rect fill="#E2E2F0" height="30.2969" rx="2.5" ry="2.5" style="stroke:#181818;stroke-width:0.5;" width="119.8613" x="574.1616" y="1338.1797"/><text fill="#000000" font-family="sans-serif" font-size="14" lengthAdjust="spacing" textLength="105.8613" x="581.1616" y="1358.1748">Supabase Auth</text></g><g class="participant participant-head" data-entity-uid="part5" data-qualified-name="DB" id="part5-head"><rect fill="#E2E2F0" height="46.5938" rx="2.5" ry="2.5" style="stroke:#181818;stroke-width:0.5;" width="107.4336" x="704.0229" y="71"/><text fill="#000000" font-family="sans-serif" font-size="14" lengthAdjust="spacing" textLength="93.4336" x="711.0229" y="90.9951">Supabase DB</text><text fill="#000000" font-family="sans-serif" font-size="14" lengthAdjust="spacing" textLength="91.6768" x="711.9014" y="107.292">(PostgreSQL)</text></g><g class="participant participant-tail" data-entity-uid="part5" data-qualified-name="DB" id="part5-tail"><rect fill="#E2E2F0" height="46.5938" rx="2.5" ry="2.5" style="stroke:#181818;stroke-width:0.5;" width="107.4336" x="704.0229" y="1338.1797"/><text fill="#000000" font-family="sans-serif" font-size="14" lengthAdjust="spacing" textLength="93.4336" x="711.0229" y="1358.1748">Supabase DB</text><text fill="#000000" font-family="sans-serif" font-size="14" lengthAdjust="spacing" textLength="91.6768" x="711.9014" y="1374.4717">(PostgreSQL)</text></g><g class="participant participant-head" data-entity-uid="part6" data-qualified-name="Storage" id="part6-head"><rect fill="#E2E2F0" height="30.2969" rx="2.5" ry="2.5" style="stroke:#181818;stroke-width:0.5;" width="141.8252" x="821.4565" y="87.2969"/><text fill="#000000" font-family="sans-serif" font-size="14" lengthAdjust="spacing" textLength="127.8252" x="828.4565" y="107.292">Supabase Storage</text></g><g class="participant participant-tail" data-entity-uid="part6" data-qualified-name="Storage" id="part6-tail"><rect fill="#E2E2F0" height="30.2969" rx="2.5" ry="2.5" style="stroke:#181818;stroke-width:0.5;" width="141.8252" x="821.4565" y="1338.1797"/><text fill="#000000" font-family="sans-serif" font-size="14" lengthAdjust="spacing" textLength="127.8252" x="828.4565" y="1358.1748">Supabase Storage</text></g><g class="participant participant-head" data-entity-uid="part7" data-qualified-name="Risk" id="part7-head"><rect fill="#E2E2F0" height="46.5938" rx="2.5" ry="2.5" style="stroke:#181818;stroke-width:0.5;" width="124.1611" x="973.2817" y="71"/><text fill="#000000" font-family="sans-serif" font-size="14" lengthAdjust="spacing" textLength="85.21" x="992.7573" y="90.9951">Risk Service</text><text fill="#000000" font-family="sans-serif" font-size="14" lengthAdjust="spacing" textLength="110.1611" x="980.2817" y="107.292">(riskRulesRepo)</text></g><g class="participant participant-tail" data-entity-uid="part7" data-qualified-name="Risk" id="part7-tail"><rect fill="#E2E2F0" height="46.5938" rx="2.5" ry="2.5" style="stroke:#181818;stroke-width:0.5;" width="124.1611" x="973.2817" y="1338.1797"/><text fill="#000000" font-family="sans-serif" font-size="14" lengthAdjust="spacing" textLength="85.21" x="992.7573" y="1358.1748">Risk Service</text><text fill="#000000" font-family="sans-serif" font-size="14" lengthAdjust="spacing" textLength="110.1611" x="980.2817" y="1374.4717">(riskRulesRepo)</text></g><rect fill="#EEEEEE" height="3" style="stroke:#EEEEEE;stroke-width:1;" width="1102.4429" x="0" y="149.1602"/><line style="stroke:#000000;stroke-width:1;" x1="0" x2="1102.4429" y1="149.1602" y2="149.1602"/><line style="stroke:#000000;stroke-width:1;" x1="0" x2="1102.4429" y1="152.1602" y2="152.1602"/><rect fill="#EEEEEE" height="23.1328" style="stroke:#000000;stroke-width:2;" width="175.8779" x="463.2825" y="138.5938"/><text fill="#000000" font-family="sans-serif" font-size="13" font-weight="bold" lengthAdjust="spacing" textLength="157.3521" x="469.2825" y="154.6606">Authentication Check</text><g class="message" data-entity-1="part1" data-entity-2="part2" id="msg1"><polygon fill="#181818" points="221.1045,188.8594,231.1045,192.8594,221.1045,196.8594,225.1045,192.8594" style="stroke:#181818;stroke-width:1;"/><line style="stroke:#181818;stroke-width:1;" x1="46.0713" x2="227.1045" y1="192.8594" y2="192.8594"/><text fill="#000000" font-family="sans-serif" font-size="13" lengthAdjust="spacing" textLength="146.415" x="66.3804" y="187.7935">Open New Trade Form</text></g><g class="message" data-entity-1="part2" data-entity-2="part4" id="msg2"><polygon fill="#181818" points="622.0923,217.9922,632.0923,221.9922,622.0923,225.9922,626.0923,221.9922" style="stroke:#181818;stroke-width:1;"/><line style="stroke:#181818;stroke-width:1;" x1="233.1045" x2="628.0923" y1="221.9922" y2="221.9922"/><text fill="#000000" font-family="sans-serif" font-size="13" lengthAdjust="spacing" textLength="81.0913" x="393.0527" y="216.9263">getSession()</text></g><g class="message" data-entity-1="part4" data-entity-2="part2" id="msg3"><polygon fill="#181818" points="244.1045,247.125,234.1045,251.125,244.1045,255.125,240.1045,251.125" style="stroke:#181818;stroke-width:1;"/><line style="stroke:#181818;stroke-width:1;stroke-dasharray:2,2;" x1="238.1045" x2="633.0923" y1="251.125" y2="251.125"/><text fill="#000000" font-family="sans-serif" font-size="13" lengthAdjust="spacing" textLength="109.1162" x="379.0403" y="246.0591">session (user_id)</text></g><rect fill="#EEEEEE" height="3" style="stroke:#EEEEEE;stroke-width:1;" width="1102.4429" x="0" y="279.6914"/><line style="stroke:#000000;stroke-width:1;" x1="0" x2="1102.4429" y1="279.6914" y2="279.6914"/><line style="stroke:#000000;stroke-width:1;" x1="0" x2="1102.4429" y1="282.6914" y2="282.6914"/><rect fill="#EEEEEE" height="23.1328" style="stroke:#000000;stroke-width:2;" width="127.623" x="487.4099" y="269.125"/><text fill="#000000" font-family="sans-serif" font-size="13" font-weight="bold" lengthAdjust="spacing" textLength="109.0972" x="493.4099" y="285.1919">Trade Creation</text><g class="message" data-entity-1="part1" data-entity-2="part2" id="msg4"><polygon fill="#181818" points="221.1045,319.3906,231.1045,323.3906,221.1045,327.3906,225.1045,323.3906" style="stroke:#181818;stroke-width:1;"/><line style="stroke:#181818;stroke-width:1;" x1="46.0713" x2="227.1045" y1="323.3906" y2="323.3906"/><text fill="#000000" font-family="sans-serif" font-size="13" lengthAdjust="spacing" textLength="117.5015" x="80.8372" y="318.3247">Fill form &amp; Submit</text></g><g class="message" data-entity-1="part2" data-entity-2="part2" id="msg5"><line style="stroke:#181818;stroke-width:1;" x1="233.1045" x2="275.1045" y1="352.5234" y2="352.5234"/><line style="stroke:#181818;stroke-width:1;" x1="275.1045" x2="275.1045" y1="352.5234" y2="365.5234"/><line style="stroke:#181818;stroke-width:1;" x1="234.1045" x2="275.1045" y1="365.5234" y2="365.5234"/><polygon fill="#181818" points="244.1045,361.5234,234.1045,365.5234,244.1045,369.5234,240.1045,365.5234" style="stroke:#181818;stroke-width:1;"/><text fill="#000000" font-family="sans-serif" font-size="13" lengthAdjust="spacing" textLength="129.9238" x="240.1045" y="347.4575">Validate input fields</text></g><g class="message" data-entity-1="part2" data-entity-2="part2" id="msg6"><line style="stroke:#181818;stroke-width:1;" x1="233.1045" x2="275.1045" y1="394.6563" y2="394.6563"/><line style="stroke:#181818;stroke-width:1;" x1="275.1045" x2="275.1045" y1="394.6563" y2="407.6563"/><line style="stroke:#181818;stroke-width:1;" x1="234.1045" x2="275.1045" y1="407.6563" y2="407.6563"/><polygon fill="#181818" points="244.1045,403.6563,234.1045,407.6563,244.1045,411.6563,240.1045,407.6563" style="stroke:#181818;stroke-width:1;"/><text fill="#000000" font-family="sans-serif" font-size="13" lengthAdjust="spacing" textLength="161.6558" x="240.1045" y="389.5903">Calculate P&amp;L, R:R ratios</text></g><g class="message" data-entity-1="part2" data-entity-2="part3" id="msg7"><polygon fill="#181818" points="485.8838,432.7891,495.8838,436.7891,485.8838,440.7891,489.8838,436.7891" style="stroke:#181818;stroke-width:1;"/><line style="stroke:#181818;stroke-width:1;" x1="233.1045" x2="491.8838" y1="436.7891" y2="436.7891"/><text fill="#000000" font-family="sans-serif" font-size="13" lengthAdjust="spacing" textLength="240.7793" x="245.1045" y="431.7231">tradesRepo.create(userId, formData)</text></g><g class="message" data-entity-1="part3" data-entity-2="part5" id="msg8"><polygon fill="#181818" points="745.7397,461.9219,755.7397,465.9219,745.7397,469.9219,749.7397,465.9219" style="stroke:#181818;stroke-width:1;"/><line style="stroke:#181818;stroke-width:1;" x1="497.8838" x2="751.7397" y1="465.9219" y2="465.9219"/><text fill="#000000" font-family="sans-serif" font-size="13" lengthAdjust="spacing" textLength="159.396" x="548.1138" y="460.856">INSERT INTO app_trades</text></g><g class="message" data-entity-1="part5" data-entity-2="part3" id="msg9"><polygon fill="#181818" points="508.8838,491.0547,498.8838,495.0547,508.8838,499.0547,504.8838,495.0547" style="stroke:#181818;stroke-width:1;"/><line style="stroke:#181818;stroke-width:1;stroke-dasharray:2,2;" x1="502.8838" x2="756.7397" y1="495.0547" y2="495.0547"/><text fill="#000000" font-family="sans-serif" font-size="13" lengthAdjust="spacing" textLength="138.6836" x="558.47" y="489.9888">trade record (with id)</text></g><g class="message" data-entity-1="part3" data-entity-2="part2" id="msg10"><polygon fill="#181818" points="244.1045,520.1875,234.1045,524.1875,244.1045,528.1875,240.1045,524.1875" style="stroke:#181818;stroke-width:1;"/><line style="stroke:#181818;stroke-width:1;stroke-dasharray:2,2;" x1="238.1045" x2="496.8838" y1="524.1875" y2="524.1875"/><text fill="#000000" font-family="sans-serif" font-size="13" lengthAdjust="spacing" textLength="81.6943" x="324.647" y="519.1216">Trade object</text></g><rect fill="#EEEEEE" height="3" style="stroke:#EEEEEE;stroke-width:1;" width="1102.4429" x="0" y="552.7539"/><line style="stroke:#000000;stroke-width:1;" x1="0" x2="1102.4429" y1="552.7539" y2="552.7539"/><line style="stroke:#000000;stroke-width:1;" x1="0" x2="1102.4429" y1="555.7539" y2="555.7539"/><rect fill="#EEEEEE" height="23.1328" style="stroke:#000000;stroke-width:2;" width="229.0522" x="436.6953" y="542.1875"/><text fill="#000000" font-family="sans-serif" font-size="13" font-weight="bold" lengthAdjust="spacing" textLength="210.5264" x="442.6953" y="558.2544">Optional: Upload Screenshot</text><g class="message" data-entity-1="part1" data-entity-2="part2" id="msg11"><polygon fill="#181818" points="221.1045,592.4531,231.1045,596.4531,221.1045,600.4531,225.1045,596.4531" style="stroke:#181818;stroke-width:1;"/><line style="stroke:#181818;stroke-width:1;" x1="46.0713" x2="227.1045" y1="596.4531" y2="596.4531"/><text fill="#000000" font-family="sans-serif" font-size="13" lengthAdjust="spacing" textLength="156.0635" x="61.5562" y="591.3872">Attach chart screenshot</text></g><g class="message" data-entity-1="part2" data-entity-2="part2" id="msg12"><line style="stroke:#181818;stroke-width:1;" x1="233.1045" x2="275.1045" y1="625.5859" y2="625.5859"/><line style="stroke:#181818;stroke-width:1;" x1="275.1045" x2="275.1045" y1="625.5859" y2="638.5859"/><line style="stroke:#181818;stroke-width:1;" x1="234.1045" x2="275.1045" y1="638.5859" y2="638.5859"/><polygon fill="#181818" points="244.1045,634.5859,234.1045,638.5859,244.1045,642.5859,240.1045,638.5859" style="stroke:#181818;stroke-width:1;"/><text fill="#000000" font-family="sans-serif" font-size="13" lengthAdjust="spacing" textLength="201.6777" x="240.1045" y="620.52">Validate file (size &#8804; 5MB, type)</text></g><g class="message" data-entity-1="part2" data-entity-2="part6" id="msg13"><polygon fill="#181818" points="880.3691,663.7188,890.3691,667.7188,880.3691,671.7188,884.3691,667.7188" style="stroke:#181818;stroke-width:1;"/><line style="stroke:#181818;stroke-width:1;" x1="233.1045" x2="886.3691" y1="667.7188" y2="667.7188"/><text fill="#000000" font-family="sans-serif" font-size="13" lengthAdjust="spacing" textLength="170.1616" x="477.656" y="662.6528">upload(userId/tradeId/file)</text></g><g class="message" data-entity-1="part6" data-entity-2="part2" id="msg14"><polygon fill="#181818" points="244.1045,692.8516,234.1045,696.8516,244.1045,700.8516,240.1045,696.8516" style="stroke:#181818;stroke-width:1;"/><line style="stroke:#181818;stroke-width:1;stroke-dasharray:2,2;" x1="238.1045" x2="891.3691" y1="696.8516" y2="696.8516"/><text fill="#000000" font-family="sans-serif" font-size="13" lengthAdjust="spacing" textLength="53.4854" x="535.9941" y="691.7856">file path</text></g><g class="message" data-entity-1="part2" data-entity-2="part3" id="msg15"><polygon fill="#181818" points="485.8838,721.9844,495.8838,725.9844,485.8838,729.9844,489.8838,725.9844" style="stroke:#181818;stroke-width:1;"/><line style="stroke:#181818;stroke-width:1;" x1="233.1045" x2="491.8838" y1="725.9844" y2="725.9844"/><text fill="#000000" font-family="sans-serif" font-size="13" lengthAdjust="spacing" textLength="174.0718" x="278.4583" y="720.9185">attachmentsRepo.upload()</text></g><g class="message" data-entity-1="part3" data-entity-2="part5" id="msg16"><polygon fill="#181818" points="745.7397,751.1172,755.7397,755.1172,745.7397,759.1172,749.7397,755.1172" style="stroke:#181818;stroke-width:1;"/><line style="stroke:#181818;stroke-width:1;" x1="497.8838" x2="751.7397" y1="755.1172" y2="755.1172"/><text fill="#000000" font-family="sans-serif" font-size="13" lengthAdjust="spacing" textLength="200.2495" x="527.687" y="750.0513">INSERT INTO app_attachments</text></g><g class="message" data-entity-1="part5" data-entity-2="part3" id="msg17"><polygon fill="#181818" points="508.8838,780.25,498.8838,784.25,508.8838,788.25,504.8838,784.25" style="stroke:#181818;stroke-width:1;"/><line style="stroke:#181818;stroke-width:1;stroke-dasharray:2,2;" x1="502.8838" x2="756.7397" y1="784.25" y2="784.25"/><text fill="#000000" font-family="sans-serif" font-size="13" lengthAdjust="spacing" textLength="121.6846" x="566.9695" y="779.1841">attachment record</text></g><g class="message" data-entity-1="part3" data-entity-2="part2" id="msg18"><polygon fill="#181818" points="244.1045,809.3828,234.1045,813.3828,244.1045,817.3828,240.1045,813.3828" style="stroke:#181818;stroke-width:1;"/><line style="stroke:#181818;stroke-width:1;stroke-dasharray:2,2;" x1="238.1045" x2="496.8838" y1="813.3828" y2="813.3828"/><text fill="#000000" font-family="sans-serif" font-size="13" lengthAdjust="spacing" textLength="120.6309" x="305.1787" y="808.3169">Attachment object</text></g><rect fill="#EEEEEE" height="3" style="stroke:#EEEEEE;stroke-width:1;" width="1102.4429" x="0" y="841.9492"/><line style="stroke:#000000;stroke-width:1;" x1="0" x2="1102.4429" y1="841.9492" y2="841.9492"/><line style="stroke:#000000;stroke-width:1;" x1="0" x2="1102.4429" y1="844.9492" y2="844.9492"/><rect fill="#EEEEEE" height="23.1328" style="stroke:#000000;stroke-width:2;" width="205.4834" x="448.4797" y="831.3828"/><text fill="#000000" font-family="sans-serif" font-size="13" font-weight="bold" lengthAdjust="spacing" textLength="186.9575" x="454.4797" y="847.4497">Optional: Log Trade Error</text><g class="message" data-entity-1="part1" data-entity-2="part2" id="msg19"><polygon fill="#181818" points="221.1045,881.6484,231.1045,885.6484,221.1045,889.6484,225.1045,885.6484" style="stroke:#181818;stroke-width:1;"/><line style="stroke:#181818;stroke-width:1;" x1="46.0713" x2="227.1045" y1="885.6484" y2="885.6484"/><text fill="#000000" font-family="sans-serif" font-size="13" lengthAdjust="spacing" textLength="109.3955" x="84.8901" y="880.5825">Select error type</text></g><g class="message" data-entity-1="part2" data-entity-2="part3" id="msg20"><polygon fill="#181818" points="485.8838,910.7813,495.8838,914.7813,485.8838,918.7813,489.8838,914.7813" style="stroke:#181818;stroke-width:1;"/><line style="stroke:#181818;stroke-width:1;" x1="233.1045" x2="491.8838" y1="914.7813" y2="914.7813"/><text fill="#000000" font-family="sans-serif" font-size="13" lengthAdjust="spacing" textLength="162.6968" x="284.1458" y="909.7153">tradeErrorsRepo.create()</text></g><g class="message" data-entity-1="part3" data-entity-2="part5" id="msg21"><polygon fill="#181818" points="745.7397,939.9141,755.7397,943.9141,745.7397,947.9141,749.7397,943.9141" style="stroke:#181818;stroke-width:1;"/><line style="stroke:#181818;stroke-width:1;" x1="497.8838" x2="751.7397" y1="943.9141" y2="943.9141"/><text fill="#000000" font-family="sans-serif" font-size="13" lengthAdjust="spacing" textLength="197.8818" x="528.8708" y="938.8481">INSERT INTO app_trade_errors</text></g><g class="message" data-entity-1="part5" data-entity-2="part3" id="msg22"><polygon fill="#181818" points="508.8838,969.0469,498.8838,973.0469,508.8838,977.0469,504.8838,973.0469" style="stroke:#181818;stroke-width:1;"/><line style="stroke:#181818;stroke-width:1;stroke-dasharray:2,2;" x1="502.8838" x2="756.7397" y1="973.0469" y2="973.0469"/><text fill="#000000" font-family="sans-serif" font-size="13" lengthAdjust="spacing" textLength="78.1587" x="588.7324" y="967.981">error record</text></g><rect fill="#EEEEEE" height="3" style="stroke:#EEEEEE;stroke-width:1;" width="1102.4429" x="0" y="1001.6133"/><line style="stroke:#000000;stroke-width:1;" x1="0" x2="1102.4429" y1="1001.6133" y2="1001.6133"/><line style="stroke:#000000;stroke-width:1;" x1="0" x2="1102.4429" y1="1004.6133" y2="1004.6133"/><rect fill="#EEEEEE" height="23.1328" style="stroke:#000000;stroke-width:2;" width="187.1768" x="457.6331" y="991.0469"/><text fill="#000000" font-family="sans-serif" font-size="13" font-weight="bold" lengthAdjust="spacing" textLength="168.6509" x="463.6331" y="1007.1138">Risk Compliance Check</text><g class="message" data-entity-1="part2" data-entity-2="part7" id="msg23"><polygon fill="#181818" points="1023.3623,1041.3125,1033.3623,1045.3125,1023.3623,1049.3125,1027.3623,1045.3125" style="stroke:#181818;stroke-width:1;"/><line style="stroke:#181818;stroke-width:1;" x1="233.1045" x2="1029.3623" y1="1045.3125" y2="1045.3125"/><text fill="#000000" font-family="sans-serif" font-size="13" lengthAdjust="spacing" textLength="184.3296" x="542.0686" y="1040.2466">riskRulesRepo.getAll(userId)</text></g><g class="message" data-entity-1="part7" data-entity-2="part5" id="msg24"><polygon fill="#181818" points="768.7397,1070.4453,758.7397,1074.4453,768.7397,1078.4453,764.7397,1074.4453" style="stroke:#181818;stroke-width:1;"/><line style="stroke:#181818;stroke-width:1;" x1="762.7397" x2="1034.3623" y1="1074.4453" y2="1074.4453"/><text fill="#000000" font-family="sans-serif" font-size="13" lengthAdjust="spacing" textLength="187.8589" x="802.6216" y="1069.3794">SELECT FROM app_risk_rules</text></g><g class="message" data-entity-1="part5" data-entity-2="part7" id="msg25"><polygon fill="#181818" points="1023.3623,1099.5781,1033.3623,1103.5781,1023.3623,1107.5781,1027.3623,1103.5781" style="stroke:#181818;stroke-width:1;"/><line style="stroke:#181818;stroke-width:1;stroke-dasharray:2,2;" x1="757.7397" x2="1029.3623" y1="1103.5781" y2="1103.5781"/><text fill="#000000" font-family="sans-serif" font-size="13" lengthAdjust="spacing" textLength="103.0034" x="845.0493" y="1098.5122">active risk rules</text></g><g class="message" data-entity-1="part7" data-entity-2="part2" id="msg26"><polygon fill="#181818" points="244.1045,1128.7109,234.1045,1132.7109,244.1045,1136.7109,240.1045,1132.7109" style="stroke:#181818;stroke-width:1;"/><line style="stroke:#181818;stroke-width:1;stroke-dasharray:2,2;" x1="238.1045" x2="1034.3623" y1="1132.7109" y2="1132.7109"/><text fill="#000000" font-family="sans-serif" font-size="13" lengthAdjust="spacing" textLength="65.9712" x="601.2478" y="1127.645">RiskRule[]</text></g><g class="message" data-entity-1="part2" data-entity-2="part2" id="msg27"><line style="stroke:#181818;stroke-width:1;" x1="233.1045" x2="275.1045" y1="1161.8438" y2="1161.8438"/><line style="stroke:#181818;stroke-width:1;" x1="275.1045" x2="275.1045" y1="1161.8438" y2="1174.8438"/><line style="stroke:#181818;stroke-width:1;" x1="234.1045" x2="275.1045" y1="1174.8438" y2="1174.8438"/><polygon fill="#181818" points="244.1045,1170.8438,234.1045,1174.8438,244.1045,1178.8438,240.1045,1174.8438" style="stroke:#181818;stroke-width:1;"/><text fill="#000000" font-family="sans-serif" font-size="13" lengthAdjust="spacing" textLength="213.9858" x="240.1045" y="1156.7778">Compare actual_risk vs max_risk</text></g><path d="M10,1189.8438 L74.4429,1189.8438 L74.4429,1196.9766 L64.4429,1206.9766 L10,1206.9766 L10,1189.8438" fill="#EEEEEE" style="stroke:#000000;stroke-width:1.5;"/><rect fill="none" height="132.3359" style="stroke:#000000;stroke-width:1.5;" width="329.2832" x="10" y="1189.8438"/><text fill="#000000" font-family="sans-serif" font-size="13" font-weight="bold" lengthAdjust="spacing" textLength="19.4429" x="25" y="1202.9106">alt</text><text fill="#000000" font-family="sans-serif" font-size="11" font-weight="bold" lengthAdjust="spacing" textLength="155.6919" x="89.4429" y="1202.0542">[Risk Violation Detected]</text><g class="message" data-entity-1="part2" data-entity-2="part2" id="msg28"><line style="stroke:#181818;stroke-width:1;" x1="233.1045" x2="275.1045" y1="1228.1094" y2="1228.1094"/><line style="stroke:#181818;stroke-width:1;" x1="275.1045" x2="275.1045" y1="1228.1094" y2="1241.1094"/><line style="stroke:#181818;stroke-width:1;" x1="234.1045" x2="275.1045" y1="1241.1094" y2="1241.1094"/><polygon fill="#181818" points="244.1045,1237.1094,234.1045,1241.1094,244.1045,1245.1094,240.1045,1241.1094" style="stroke:#181818;stroke-width:1;"/><text fill="#000000" font-family="sans-serif" font-size="13" lengthAdjust="spacing" textLength="87.1787" x="240.1045" y="1223.0435">Flag violation</text></g><g class="message" data-entity-1="part2" data-entity-2="part1" id="msg29"><polygon fill="#181818" points="57.0713,1266.2422,47.0713,1270.2422,57.0713,1274.2422,53.0713,1270.2422" style="stroke:#181818;stroke-width:1;"/><line style="stroke:#181818;stroke-width:1;stroke-dasharray:2,2;" x1="51.0713" x2="232.1045" y1="1270.2422" y2="1270.2422"/><text fill="#000000" font-family="sans-serif" font-size="13" lengthAdjust="spacing" textLength="131.7266" x="73.7246" y="1265.1763">Display risk warning</text></g><line style="stroke:#000000;stroke-width:1;stroke-dasharray:2,2;" x1="10" x2="339.2832" y1="1279.2422" y2="1279.2422"/><text fill="#000000" font-family="sans-serif" font-size="11" font-weight="bold" lengthAdjust="spacing" textLength="92.2969" x="15" y="1289.4526">[Within Limits]</text><g class="message" data-entity-1="part2" data-entity-2="part1" id="msg30"><polygon fill="#181818" points="57.0713,1310.1797,47.0713,1314.1797,57.0713,1318.1797,53.0713,1314.1797" style="stroke:#181818;stroke-width:1;"/><line style="stroke:#181818;stroke-width:1;stroke-dasharray:2,2;" x1="51.0713" x2="232.1045" y1="1314.1797" y2="1314.1797"/><text fill="#000000" font-family="sans-serif" font-size="13" lengthAdjust="spacing" textLength="163.0332" x="58.0713" y="1309.1138">Trade saved successfully</text></g><?plantuml-src ZLLDRzf04BtlhnYrKWHIafvwGQ8Idn8I2QcTj8UsGeCzc2sBxUwkeVJKQ-_z2Vrb-IMTNIy4254h3buyxxsPVRipDakPbwXn1JDCbfakgZpj5QhGy7euS3zXzWYpmBJOo3o38If3Xn7wLb6Uq0qPWnbrbCnoI2Ytf8MmqYg2E42WBp5pdCUVlw6d2It1lSQKO2Fj0Y9fbl01bKpHoY8N0XFBnNY45fpDoaIMc5juzJ22CMv9VyuR4J4CUiMgB7BEQfgl00qyZ8u94PM5aIottHEjqpKkK5FSwfWKLoNEq11qAhlm6BTu0TFlikPTOMocANu_hZNxtHVGCPV2RdbGM9yKxCo8IQzbGYoi-MzKgQDw-PKGxROlYdSk4syRz1QKBA7T5hLnSFMEtO0MJ4hAuPOsmV9XeLU20nns0Wp8oCPyYApHQ0h_xch7DVLxQ5I6z5IcJP-u5l87wOBFKmwbKZ3dH701SJLRIHio-cWuQWA-IfM5kIILcaD03rLIAOUuknXVGjIAGBjKEv3pWc5F1tcT-4lbgnobbpvr7oqsXOSofTzbmkWs7aJt_BYV09Rbj1OG7BiwKGLDIQ5JQFWBwlPT2-qgh1qePbyfiTwIIUciGDM2Xr8Lc4BC9L5k5eKzuq_7MamMa2puvC7iaMTDcalkf8QHFmWUV_s1jpVTIx3Rafe17MuHKogVEPZmnk-3duxV53lKVWTUjaI-raUUegzivHhA6niq_s7a0Ul4pQT8iFJ4oCvJ_AoRuo8BPW-qvg7mtCkO5DE0VDWPS-QIUExHJVcVcp7rcgSxgXE5pRXYVSUwEQGakc6txyDGXmktuAYHhxdbEag5e-9Q76PNIpmO3thtC8mcDxuMnvngHzrNKalo_9DhyifGnskTdJDHIFdfor5pSQMeoR4hL5uTrWPM-DslUVeg6qQoB5JTuNsox36b0k10QQWmW_KE568S30VKuh5lIeNRki8Dwfo_8uBuCm8VkQra3cF9ey6SOTP7Rd1DAPWgINWCpIkbjeBoLFm5?></g></svg>