<?plantuml 1.2026.1?><svg xmlns="http://www.w3.org/2000/svg" xmlns:xlink="http://www.w3.org/1999/xlink" contentStyleType="text/css" data-diagram-type="DESCRIPTION" height="1917px" preserveAspectRatio="none" style="width:826px;height:1917px;background:#FEFEFE;" version="1.1" viewBox="0 0 826 1917" width="826px" zoomAndPan="magnify"><title>Trading Journal &amp; Risk Analysis System &#8212; Use Case Diagram</title><defs/><g><rect fill="#FEFEFE" height="1917" style="stroke:none;stroke-width:1;" width="826" x="0" y="0"/><g class="title" data-source-line="7"><text fill="#000000" font-family="sans-serif" font-size="14" font-weight="bold" lengthAdjust="spacing" textLength="477.4492" x="167.5404" y="22.9951">Trading Journal &amp; Risk Analysis System &#8212; Use Case Diagram</text></g><!--cluster Trading Journal & Risk Analysis System--><g class="cluster" data-qualified-name="Trading Journal . Risk Analysis System" data-source-line="12" id="ent0004"><rect fill="none" height="1729" rx="2.5" ry="2.5" style="stroke:#181818;stroke-width:1;" width="648.76" x="171.77" y="182.0369"/><text fill="#000000" font-family="sans-serif" font-size="14" font-weight="bold" lengthAdjust="spacing" textLength="310.3789" x="340.9605" y="197.032">Trading Journal &amp; Risk Analysis System</text></g><!--cluster Authentication--><g class="cluster" data-qualified-name="Trading Journal . Risk Analysis System.Authentication" data-source-line="13" id="ent0005"><rect fill="none" height="214" rx="2.5" ry="2.5" style="stroke:#181818;stroke-width:1;" width="182.63" x="241.78" y="225.0369"/><text fill="#000000" font-family="sans-serif" font-size="14" font-weight="bold" lengthAdjust="spacing" textLength="117.2363" x="274.4768" y="240.032">Authentication</text></g><!--cluster Trade Management--><g class="cluster" data-qualified-name="Trading Journal . Risk Analysis System.Trade Management" data-source-line="19" id="ent0009"><rect fill="none" height="433" rx="2.5" ry="2.5" style="stroke:#181818;stroke-width:1;" width="570.46" x="226.07" y="463.0369"/><text fill="#000000" font-family="sans-serif" font-size="14" font-weight="bold" lengthAdjust="spacing" textLength="153.3438" x="434.6281" y="478.032">Trade Management</text></g><!--cluster Analytics & Reporting--><g class="cluster" data-qualified-name="Trading Journal . Risk Analysis System.Analytics . Reporting" data-source-line="31" id="ent0019"><rect fill="none" height="335" rx="2.5" ry="2.5" style="stroke:#181818;stroke-width:1;" width="274.64" x="195.77" y="1104.0369"/><text fill="#000000" font-family="sans-serif" font-size="14" font-weight="bold" lengthAdjust="spacing" textLength="172.5527" x="246.8136" y="1119.032">Analytics &amp; Reporting</text></g><!--cluster Risk Management--><g class="cluster" data-qualified-name="Trading Journal . Risk Analysis System.Risk Management" data-source-line="38" id="ent0024"><rect fill="none" height="235" rx="2.5" ry="2.5" style="stroke:#181818;stroke-width:1;" width="212.1" x="227.04" y="1463.0369"/><text fill="#000000" font-family="sans-serif" font-size="14" font-weight="bold" lengthAdjust="spacing" textLength="141.1484" x="262.5158" y="1478.032">Risk Management</text></g><!--cluster Reviews--><g class="cluster" data-qualified-name="Trading Journal . Risk Analysis System.Reviews" data-source-line="44" id="ent0028"><rect fill="none" height="165" rx="2.5" ry="2.5" style="stroke:#181818;stroke-width:1;" width="209.1" x="228.54" y="1722.0369"/><text fill="#000000" font-family="sans-serif" font-size="14" font-weight="bold" lengthAdjust="spacing" textLength="64.9619" x="300.609" y="1737.032">Reviews</text></g><!--cluster Settings--><g class="cluster" data-qualified-name="Trading Journal . Risk Analysis System.Settings" data-source-line="49" id="ent0031"><rect fill="none" height="160" rx="2.5" ry="2.5" style="stroke:#181818;stroke-width:1;" width="193.06" x="236.56" y="920.0369"/><text fill="#000000" font-family="sans-serif" font-size="14" font-weight="bold" lengthAdjust="spacing" textLength="66.083" x="300.0485" y="935.032">Settings</text></g><!--entity UC1--><g class="entity" data-qualified-name="Trading Journal . Risk Analysis System.Authentication.UC1" data-source-line="14" id="ent0006"><ellipse cx="333.0854" cy="277.04" fill="#F1F1F1" rx="75.3154" ry="17.4631" style="stroke:#181818;stroke-width:0.5;"/><text fill="#000000" font-family="sans-serif" font-size="14" lengthAdjust="spacing" textLength="119.4922" x="273.3393" y="281.6884">Register Account</text></g><!--entity UC2--><g class="entity" data-qualified-name="Trading Journal . Risk Analysis System.Authentication.UC2" data-source-line="15" id="ent0007"><ellipse cx="333.0904" cy="344.0405" fill="#F1F1F1" rx="29.8804" ry="14.5236" style="stroke:#181818;stroke-width:0.5;"/><text fill="#000000" font-family="sans-serif" font-size="14" lengthAdjust="spacing" textLength="38.0146" x="314.0831" y="348.6889">Login</text></g><!--entity UC3--><g class="entity" data-qualified-name="Trading Journal . Risk Analysis System.Authentication.UC3" data-source-line="16" id="ent0008"><ellipse cx="333.0882" cy="408.0405" fill="#F1F1F1" rx="37.0682" ry="14.5236" style="stroke:#181818;stroke-width:0.5;"/><text fill="#000000" font-family="sans-serif" font-size="14" lengthAdjust="spacing" textLength="48.1797" x="308.9983" y="412.6889">Logout</text></g><!--entity UC4--><g class="entity" data-qualified-name="Trading Journal . Risk Analysis System.Trade Management.UC4" data-source-line="20" id="ent0010"><ellipse cx="333.0926" cy="513.0414" fill="#F1F1F1" rx="64.3226" ry="15.2645" style="stroke:#181818;stroke-width:0.5;"/><text fill="#000000" font-family="sans-serif" font-size="14" lengthAdjust="spacing" textLength="91.6631" x="287.261" y="517.6898">Create Trade</text></g><!--entity UC5--><g class="entity" data-qualified-name="Trading Journal . Risk Analysis System.Trade Management.UC5" data-source-line="21" id="ent0011"><ellipse cx="333.0851" cy="578.0405" fill="#F1F1F1" rx="53.8751" ry="14.5236" style="stroke:#181818;stroke-width:0.5;"/><text fill="#000000" font-family="sans-serif" font-size="14" lengthAdjust="spacing" textLength="71.9482" x="297.111" y="582.6889">Edit Trade</text></g><!--entity UC6--><g class="entity" data-qualified-name="Trading Journal . Risk Analysis System.Trade Management.UC6" data-source-line="22" id="ent0012"><ellipse cx="333.0941" cy="643.0397" fill="#F1F1F1" rx="64.0141" ry="15.2028" style="stroke:#181818;stroke-width:0.5;"/><text fill="#000000" font-family="sans-serif" font-size="14" lengthAdjust="spacing" textLength="90.8359" x="287.6761" y="647.6881">Delete Trade</text></g><!--entity UC7--><g class="entity" data-qualified-name="Trading Journal . Risk Analysis System.Trade Management.UC7" data-source-line="23" id="ent0013"><ellipse cx="333.0871" cy="712.0343" fill="#F1F1F1" rx="80.2871" ry="18.4574" style="stroke:#181818;stroke-width:0.5;"/><text fill="#000000" font-family="sans-serif" font-size="14" lengthAdjust="spacing" textLength="131.3525" x="267.4108" y="716.6827">View Trade Details</text></g><!--entity UC8--><g class="entity" data-qualified-name="Trading Journal . Risk Analysis System.Trade Management.UC8" data-source-line="24" id="ent0014"><ellipse cx="333.0891" cy="786.0407" fill="#F1F1F1" rx="91.0191" ry="20.6038" style="stroke:#181818;stroke-width:0.5;"/><text fill="#000000" font-family="sans-serif" font-size="14" lengthAdjust="spacing" textLength="156.0439" x="255.0671" y="790.6891">Filter &amp; Search Trades</text></g><!--entity UC9--><g class="entity" data-qualified-name="Trading Journal . Risk Analysis System.Trade Management.UC9" data-source-line="25" id="ent0015"><ellipse cx="680.9706" cy="520.039" fill="#F1F1F1" rx="99.5606" ry="22.3121" style="stroke:#181818;stroke-width:0.5;"/><text fill="#000000" font-family="sans-serif" font-size="14" lengthAdjust="spacing" textLength="175.0889" x="593.4262" y="524.6874">Upload Chart Screenshot</text></g><!--entity UC10--><g class="entity" data-qualified-name="Trading Journal . Risk Analysis System.Trade Management.UC10" data-source-line="26" id="ent0016"><ellipse cx="680.9717" cy="592.0405" fill="#F1F1F1" rx="53.1017" ry="14.5236" style="stroke:#181818;stroke-width:0.5;"/><text fill="#000000" font-family="sans-serif" font-size="14" lengthAdjust="spacing" textLength="70.8545" x="645.5444" y="596.6889">Tag Trade</text></g><!--entity UC11--><g class="entity" data-qualified-name="Trading Journal . Risk Analysis System.Trade Management.UC11" data-source-line="27" id="ent0017"><ellipse cx="680.9726" cy="658.0334" fill="#F1F1F1" rx="71.1326" ry="16.6265" style="stroke:#181818;stroke-width:0.5;"/><text fill="#000000" font-family="sans-serif" font-size="14" lengthAdjust="spacing" textLength="109.2178" x="626.3638" y="662.6818">Log Trade Error</text></g><!--entity UC12--><g class="entity" data-qualified-name="Trading Journal . Risk Analysis System.Trade Management.UC12" data-source-line="28" id="ent0018"><ellipse cx="333.0938" cy="861.0416" fill="#F1F1F1" rx="84.6738" ry="19.3348" style="stroke:#181818;stroke-width:0.5;"/><text fill="#000000" font-family="sans-serif" font-size="14" lengthAdjust="spacing" textLength="141.5723" x="262.3076" y="865.6901">Export Trades (CSV)</text></g><!--entity UC13--><g class="entity" data-qualified-name="Trading Journal . Risk Analysis System.Analytics . Reporting.UC13" data-source-line="32" id="ent0020"><ellipse cx="333.0929" cy="1403.0334" fill="#F1F1F1" rx="87.3329" ry="19.8666" style="stroke:#181818;stroke-width:0.5;"/><text fill="#000000" font-family="sans-serif" font-size="14" lengthAdjust="spacing" textLength="147.6768" x="259.2545" y="1407.6819">View Dashboard KPIs</text></g><!--entity UC14--><g class="entity" data-qualified-name="Trading Journal . Risk Analysis System.Analytics . Reporting.UC14" data-source-line="33" id="ent0021"><ellipse cx="333.0855" cy="1163.034" fill="#F1F1F1" rx="108.8855" ry="24.1771" style="stroke:#181818;stroke-width:0.5;"/><text fill="#000000" font-family="sans-serif" font-size="14" lengthAdjust="spacing" textLength="195.4668" x="235.3521" y="1167.6824">View Performance Analytics</text></g><!--entity UC15--><g class="entity" data-qualified-name="Trading Journal . Risk Analysis System.Analytics . Reporting.UC15" data-source-line="34" id="ent0022"><ellipse cx="333.0866" cy="1249.0402" fill="#F1F1F1" rx="121.3166" ry="26.6633" style="stroke:#181818;stroke-width:0.5;"/><text fill="#000000" font-family="sans-serif" font-size="14" lengthAdjust="spacing" textLength="222.1611" x="222.006" y="1253.6886">Compare Strategy Performance</text></g><!--entity UC16--><g class="entity" data-qualified-name="Trading Journal . Risk Analysis System.Analytics . Reporting.UC16" data-source-line="35" id="ent0023"><ellipse cx="333.0933" cy="1329.0375" fill="#F1F1F1" rx="81.7533" ry="18.7507" style="stroke:#181818;stroke-width:0.5;"/><text fill="#000000" font-family="sans-serif" font-size="14" lengthAdjust="spacing" textLength="134.791" x="265.6978" y="1333.686">View Error Analysis</text></g><!--entity UC17--><g class="entity" data-qualified-name="Trading Journal . Risk Analysis System.Risk Management.UC17" data-source-line="39" id="ent0025"><ellipse cx="333.0909" cy="1516.0391" fill="#F1F1F1" rx="76.3609" ry="17.6722" style="stroke:#181818;stroke-width:0.5;"/><text fill="#000000" font-family="sans-serif" font-size="14" lengthAdjust="spacing" textLength="122.0146" x="272.0836" y="1520.6875">Define Risk Rules</text></g><!--entity UC18--><g class="entity" data-qualified-name="Trading Journal . Risk Analysis System.Risk Management.UC18" data-source-line="40" id="ent0026"><ellipse cx="333.091" cy="1589.0371" fill="#F1F1F1" rx="90.051" ry="20.4102" style="stroke:#181818;stroke-width:0.5;"/><text fill="#000000" font-family="sans-serif" font-size="14" lengthAdjust="spacing" textLength="153.8564" x="256.1628" y="1593.6855">View Risk Compliance</text></g><!--entity UC19--><g class="entity" data-qualified-name="Trading Journal . Risk Analysis System.Risk Management.UC19" data-source-line="41" id="ent0027"><ellipse cx="333.0855" cy="1663.038" fill="#F1F1F1" rx="81.4055" ry="18.6811" style="stroke:#181818;stroke-width:0.5;"/><text fill="#000000" font-family="sans-serif" font-size="14" lengthAdjust="spacing" textLength="133.9775" x="266.0967" y="1667.6864">Receive Risk Alerts</text></g><!--entity UC20--><g class="entity" data-qualified-name="Trading Journal . Risk Analysis System.Reviews.UC20" data-source-line="45" id="ent0029"><ellipse cx="333.0935" cy="1851.0376" fill="#F1F1F1" rx="88.5535" ry="20.1107" style="stroke:#181818;stroke-width:0.5;"/><text fill="#000000" font-family="sans-serif" font-size="14" lengthAdjust="spacing" textLength="150.459" x="257.864" y="1855.686">Create Period Review</text></g><!--entity UC21--><g class="entity" data-qualified-name="Trading Journal . Risk Analysis System.Reviews.UC21" data-source-line="46" id="ent0030"><ellipse cx="333.0935" cy="1776.0396" fill="#F1F1F1" rx="85.2135" ry="19.4427" style="stroke:#181818;stroke-width:0.5;"/><text fill="#000000" font-family="sans-serif" font-size="14" lengthAdjust="spacing" textLength="142.8164" x="261.6853" y="1780.688">View Review History</text></g><!--entity UC22--><g class="entity" data-qualified-name="Trading Journal . Risk Analysis System.Settings.UC22" data-source-line="50" id="ent0032"><ellipse cx="333.0943" cy="973.0417" fill="#F1F1F1" rx="80.3743" ry="18.4749" style="stroke:#181818;stroke-width:0.5;"/><text fill="#000000" font-family="sans-serif" font-size="14" lengthAdjust="spacing" textLength="131.5576" x="267.3155" y="977.6902">Manage Strategies</text></g><!--entity UC23--><g class="entity" data-qualified-name="Trading Journal . Risk Analysis System.Settings.UC23" data-source-line="51" id="ent0033"><ellipse cx="333.0912" cy="1045.0331" fill="#F1F1F1" rx="80.5312" ry="18.5062" style="stroke:#181818;stroke-width:0.5;"/><text fill="#000000" font-family="sans-serif" font-size="14" lengthAdjust="spacing" textLength="131.9268" x="267.1279" y="1049.6816">Manage Risk Rules</text></g><!--entity Trader--><g class="entity" data-qualified-name="Trader" data-source-line="9" id="ent0002"><ellipse cx="65.3872" cy="801.8869" fill="#F1F1F1" rx="16" ry="16" style="stroke:#181818;stroke-width:0.5;"/><path d="M65.3872,821.8869 C69.3872,821.8869 72.3872,821.8869 76.3872,817.8869 C84.3872,817.8869 92.3872,825.8869 92.3872,833.8869 L92.3872,837.8869 C92.3872,841.8869 88.3872,845.8869 84.3872,845.8869 L46.3872,845.8869 C42.3872,845.8869 38.3872,841.8869 38.3872,837.8869 L38.3872,833.8869 C38.3872,825.8869 46.3872,817.8869 54.3872,817.8869 C58.3872,821.8869 61.3872,821.8869 65.3872,821.8869" fill="#F1F1F1" style="stroke:#181818;stroke-width:0.5;"/><text fill="#000000" font-family="sans-serif" font-size="14" lengthAdjust="spacing" textLength="118.7744" x="6" y="859.382">Individual Trader</text></g><!--entity System--><g class="entity" data-qualified-name="System" data-source-line="10" id="ent0003"><ellipse cx="65.3874" cy="1502.7369" fill="#F1F1F1" rx="16" ry="16" style="stroke:#181818;stroke-width:0.5;"/><path d="M65.3874,1522.7369 C69.3874,1522.7369 72.3874,1522.7369 76.3874,1518.7369 C84.3874,1518.7369 92.3874,1526.7369 92.3874,1534.7369 L92.3874,1538.7369 C92.3874,1542.7369 88.3874,1546.7369 84.3874,1546.7369 L46.3874,1546.7369 C42.3874,1546.7369 38.3874,1542.7369 38.3874,1538.7369 L38.3874,1534.7369 C38.3874,1526.7369 46.3874,1518.7369 54.3874,1518.7369 C58.3874,1522.7369 61.3874,1522.7369 65.3874,1522.7369" fill="#F1F1F1" style="stroke:#181818;stroke-width:0.5;"/><text fill="#000000" font-family="sans-serif" font-size="14" lengthAdjust="spacing" textLength="52.2061" x="21.07" y="1560.232">System</text><text fill="#000000" font-family="sans-serif" font-size="14" lengthAdjust="spacing" textLength="88.6348" x="21.07" y="1576.5289">(Automated)</text></g><!--link Trader to UC1--><g class="link" data-entity-1="ent0002" data-entity-2="ent0006" data-link-type="dependency" data-source-line="55" id="lnk34"><path d="M68.35,785.0369 C74.58,677.3369 97.57,379.3869 163.77,312.0369 C188.05,287.3469 218.9048,278.3914 251.9348,275.3814" fill="none" id="Trader-to-UC1" style="stroke:#181818;stroke-width:1;"/><polygon fill="#181818" points="257.91,274.8369,248.5841,271.6702,252.9306,275.2906,249.3102,279.6371,257.91,274.8369" style="stroke:#181818;stroke-width:1;"/></g><!--link Trader to UC2--><g class="link" data-entity-1="ent0002" data-entity-2="ent0007" data-link-type="dependency" data-source-line="56" id="lnk35"><path d="M69.45,784.9169 C77.97,686.6169 105.26,433.0369 163.77,376.0369 C201.17,339.6069 260.4151,337.6619 297.7351,340.3119" fill="none" id="Trader-to-UC2" style="stroke:#181818;stroke-width:1;"/><polygon fill="#181818" points="303.72,340.7369,295.0259,336.1095,298.7326,340.3827,294.4593,344.0894,303.72,340.7369" style="stroke:#181818;stroke-width:1;"/></g><!--link Trader to UC3--><g class="link" data-entity-1="ent0002" data-entity-2="ent0008" data-link-type="dependency" data-source-line="57" id="lnk36"><path d="M67.11,784.9169 C70.43,715.6269 86.8,570.3369 163.77,482.0369 C199.01,441.6169 254.6323,423.676 292.7323,415.226" fill="none" id="Trader-to-UC3" style="stroke:#181818;stroke-width:1;"/><polygon fill="#181818" points="298.59,413.9269,288.9374,411.9705,293.7086,415.0095,290.6696,419.7807,298.59,413.9269" style="stroke:#181818;stroke-width:1;"/></g><!--link Trader to UC4--><g class="link" data-entity-1="ent0002" data-entity-2="ent0010" data-link-type="dependency" data-source-line="58" id="lnk37"><path d="M68.28,785.0569 C73.45,724.3069 92.64,607.6369 163.77,546.0369 C192.47,521.1769 228.3504,513.2498 263.1404,511.1998" fill="none" id="Trader-to-UC4" style="stroke:#181818;stroke-width:1;"/><polygon fill="#181818" points="269.13,510.8469,259.9103,507.3832,264.1387,511.141,260.3809,515.3694,269.13,510.8469" style="stroke:#181818;stroke-width:1;"/></g><!--link Trader to UC5--><g class="link" data-entity-1="ent0002" data-entity-2="ent0011" data-link-type="dependency" data-source-line="59" id="lnk38"><path d="M72.95,784.8969 C83.29,736.0469 108.24,653.6569 163.77,610.0369 C196.41,584.4069 237.4535,577.413 273.5235,576.173" fill="none" id="Trader-to-UC5" style="stroke:#181818;stroke-width:1;"/><polygon fill="#181818" points="279.52,575.9669,270.3879,572.2785,274.523,576.1387,270.6627,580.2737,279.52,575.9669" style="stroke:#181818;stroke-width:1;"/></g><!--link Trader to UC6--><g class="link" data-entity-1="ent0002" data-entity-2="ent0012" data-link-type="dependency" data-source-line="60" id="lnk39"><path d="M81.57,785.1769 C97.02,750.9469 124.32,702.5269 163.77,676.0369 C194.56,655.3769 229.2361,647.5663 262.8761,644.4163" fill="none" id="Trader-to-UC6" style="stroke:#181818;stroke-width:1;"/><polygon fill="#181818" points="268.85,643.8569,259.5163,640.7134,263.8718,644.323,260.2621,648.6785,268.85,643.8569" style="stroke:#181818;stroke-width:1;"/></g><!--link Trader to UC7--><g class="link" data-entity-1="ent0002" data-entity-2="ent0013" data-link-type="dependency" data-source-line="61" id="lnk40"><path d="M107.72,785.0569 C124.08,771.5069 143.76,757.3769 163.77,748.0369 C193.83,734.0069 223.5567,726.3932 254.2767,721.1132" fill="none" id="Trader-to-UC7" style="stroke:#181818;stroke-width:1;"/><polygon fill="#181818" points="260.19,720.0969,250.6425,717.6792,255.2623,720.9438,251.9976,725.5636,260.19,720.0969" style="stroke:#181818;stroke-width:1;"/></g><!--link Trader to UC8--><g class="link" data-entity-1="ent0002" data-entity-2="ent0014" data-link-type="dependency" data-source-line="62" id="lnk41"><path d="M125.03,815.6469 C163.39,810.1669 207.9604,803.7864 249.4904,797.8464" fill="none" id="Trader-to-UC8" style="stroke:#181818;stroke-width:1;"/><polygon fill="#181818" points="255.43,796.9969,245.9543,794.3115,250.4804,797.7048,247.087,802.2309,255.43,796.9969" style="stroke:#181818;stroke-width:1;"/></g><!--link Trader to UC9--><g class="link" data-entity-1="ent0002" data-entity-2="ent0015" data-link-type="dependency" data-source-line="63" id="lnk42"><path d="M68.78,784.9369 C77.79,644.4169 111.82,171.1169 163.77,130.0369 C273.46,43.2969 355.6,63.1669 478.41,130.0369 C620.98,207.6669 664.9197,420.1779 675.9697,491.3679" fill="none" id="Trader-to-UC9" style="stroke:#181818;stroke-width:1;"/><polygon fill="#181818" points="676.89,497.2969,679.4622,487.7898,676.1231,492.356,671.5569,489.0169,676.89,497.2969" style="stroke:#181818;stroke-width:1;"/></g><!--link Trader to UC10--><g class="link" data-entity-1="ent0002" data-entity-2="ent0016" data-link-type="dependency" data-source-line="64" id="lnk43"><path d="M65.84,785.0969 C64.98,658.2869 69.94,261.1069 163.77,186.0369 C272.97,98.6769 360.78,110.4169 478.41,186.0369 C544.15,228.3069 529.53,270.9969 551.41,346.0369 C578.29,438.2369 519.68,486.4569 581.41,560.0369 C593.66,574.6469 606.8368,581.2419 624.8968,585.5919" fill="none" id="Trader-to-UC10" style="stroke:#181818;stroke-width:1;"/><polygon fill="#181818" points="630.73,586.9969,622.9169,581.0006,625.869,585.826,621.0436,588.7782,630.73,586.9969" style="stroke:#181818;stroke-width:1;"/></g><!--link Trader to UC11--><g class="link" data-entity-1="ent0002" data-entity-2="ent0017" data-link-type="dependency" data-source-line="65" id="lnk44"><path d="M66.68,785.1269 C68.5,666.5869 80.88,313.8169 163.77,244.0369 C270.75,153.9869 366.43,160.2769 478.41,244.0369 C570.41,312.8669 522.44,380.8469 551.41,492.0369 C566.58,550.2569 541.24,579.2469 581.41,624.0369 C591.92,635.7569 600.9852,641.5278 615.8852,646.5578" fill="none" id="Trader-to-UC11" style="stroke:#181818;stroke-width:1;"/><polygon fill="#181818" points="621.57,648.4769,614.3222,641.8084,616.8327,646.8776,611.7634,649.3881,621.57,648.4769" style="stroke:#181818;stroke-width:1;"/></g><!--link Trader to UC12--><g class="link" data-entity-1="ent0002" data-entity-2="ent0018" data-link-type="dependency" data-source-line="66" id="lnk45"><path d="M125.03,832.2069 C164.76,837.7369 211.5973,844.2598 253.9173,850.1498" fill="none" id="Trader-to-UC12" style="stroke:#181818;stroke-width:1;"/><polygon fill="#181818" points="259.86,850.9769,251.4973,845.7744,254.9077,850.2876,250.3945,853.698,259.86,850.9769" style="stroke:#181818;stroke-width:1;"/></g><!--link Trader to UC13--><g class="link" data-entity-1="ent0002" data-entity-2="ent0020" data-link-type="dependency" data-source-line="67" id="lnk46"><path d="M81.36,862.8669 C102.45,919.6569 140.08,1029.1469 155.77,1126.0369 C157.9,1139.1469 155.31,1354.7969 163.77,1365.0369 C183.63,1389.0469 209.1899,1398.9711 239.5999,1403.3011" fill="none" id="Trader-to-UC13" style="stroke:#181818;stroke-width:1;"/><polygon fill="#181818" points="245.54,1404.1469,237.1937,1398.9181,240.5899,1403.442,236.066,1406.8382,245.54,1404.1469" style="stroke:#181818;stroke-width:1;"/></g><!--link Trader to UC14--><g class="link" data-entity-1="ent0002" data-entity-2="ent0021" data-link-type="dependency" data-source-line="68" id="lnk47"><path d="M91.86,863.0069 C112.81,897.1369 141.31,948.8369 155.77,998.0369 C160.94,1015.6069 153.36,1064.9769 163.77,1080.0369 C186.1,1112.3269 219.0531,1130.5788 253.6631,1143.0088" fill="none" id="Trader-to-UC14" style="stroke:#181818;stroke-width:1;"/><polygon fill="#181818" points="259.31,1145.0369,252.1917,1138.2302,254.6043,1143.3468,249.4877,1145.7594,259.31,1145.0369" style="stroke:#181818;stroke-width:1;"/></g><!--link Trader to UC15--><g class="link" data-entity-1="ent0002" data-entity-2="ent0022" data-link-type="dependency" data-source-line="69" id="lnk48"><path d="M87.28,862.8969 C108.83,905.1369 141.27,975.2869 155.77,1040.0369 C159.79,1057.9469 152.21,1190.7869 163.77,1205.0369 C177.67,1222.1569 191.629,1231.2164 212.629,1238.1064" fill="none" id="Trader-to-UC15" style="stroke:#181818;stroke-width:1;"/><polygon fill="#181818" points="218.33,1239.9769,211.0255,1233.3705,213.5792,1238.4182,208.5315,1240.9718,218.33,1239.9769" style="stroke:#181818;stroke-width:1;"/></g><!--link Trader to UC16--><g class="link" data-entity-1="ent0002" data-entity-2="ent0023" data-link-type="dependency" data-source-line="70" id="lnk49"><path d="M83.89,862.8269 C105.34,912.4669 140.68,1001.6669 155.77,1082.0369 C157.94,1093.5669 156.23,1284.0569 163.77,1293.0369 C185.12,1318.4269 213.632,1327.948 245.842,1331.288" fill="none" id="Trader-to-UC16" style="stroke:#181818;stroke-width:1;"/><polygon fill="#181818" points="251.81,1331.9069,243.2706,1326.9999,246.8367,1331.3912,242.4454,1334.9573,251.81,1331.9069" style="stroke:#181818;stroke-width:1;"/></g><!--link Trader to UC17--><g class="link" data-entity-1="ent0002" data-entity-2="ent0025" data-link-type="dependency" data-source-line="71" id="lnk50"><path d="M79.29,863.1869 C99.87,927.7269 139.5,1060.8969 155.77,1177.0369 C157.8,1191.4569 155.72,1426.9069 163.77,1439.0369 C187.95,1475.4469 228.1486,1493.3284 265.9586,1503.5684" fill="none" id="Trader-to-UC17" style="stroke:#181818;stroke-width:1;"/><polygon fill="#181818" points="271.75,1505.1369,264.1086,1498.9233,266.9239,1503.8298,262.0173,1506.6451,271.75,1505.1369" style="stroke:#181818;stroke-width:1;"/></g><!--link Trader to UC18--><g class="link" data-entity-1="ent0002" data-entity-2="ent0026" data-link-type="dependency" data-source-line="72" id="lnk51"><path d="M77.28,863.0069 C97.2,936.3169 138.99,1100.0569 155.77,1241.0369 C157.81,1258.1469 152.84,1537.7169 163.77,1551.0369 C182.97,1574.4269 207.29,1584.363 236.88,1588.923" fill="none" id="Trader-to-UC18" style="stroke:#181818;stroke-width:1;"/><polygon fill="#181818" points="242.81,1589.8369,234.5242,1584.5128,237.8683,1589.0753,233.3058,1592.4194,242.81,1589.8369" style="stroke:#181818;stroke-width:1;"/></g><!--link Trader to UC20--><g class="link" data-entity-1="ent0002" data-entity-2="ent0029" data-link-type="dependency" data-source-line="73" id="lnk52"><path d="M69.92,863.0269 C86.45,1045.1769 155.73,1803.9369 163.77,1813.0369 C183.9,1835.8269 208.6013,1845.5948 238.2413,1850.2048" fill="none" id="Trader-to-UC20" style="stroke:#181818;stroke-width:1;"/><polygon fill="#181818" points="244.17,1851.1269,235.8917,1845.7912,239.2294,1850.3584,234.6622,1853.6962,244.17,1851.1269" style="stroke:#181818;stroke-width:1;"/></g><!--link Trader to UC21--><g class="link" data-entity-1="ent0002" data-entity-2="ent0030" data-link-type="dependency" data-source-line="74" id="lnk53"><path d="M75.41,862.8869 C94.46,946.9469 138.47,1152.2769 155.77,1327.0369 C157.81,1347.5569 152.49,1680.7869 163.77,1698.0369 C186.78,1733.2069 224.3089,1751.1205 261.2189,1761.8605" fill="none" id="Trader-to-UC21" style="stroke:#181818;stroke-width:1;"/><polygon fill="#181818" points="266.98,1763.5369,259.456,1757.1816,262.1791,1762.1399,257.2208,1764.8631,266.98,1763.5369" style="stroke:#181818;stroke-width:1;"/></g><!--link Trader to UC22--><g class="link" data-entity-1="ent0002" data-entity-2="ent0032" data-link-type="dependency" data-source-line="75" id="lnk54"><path d="M115.07,863.0969 C130.22,874.4069 147.29,886.3169 163.77,896.0369 C205.29,920.5269 250.3846,940.4804 285.2146,954.6904" fill="none" id="Trader-to-UC22" style="stroke:#181818;stroke-width:1;"/><polygon fill="#181818" points="290.77,956.9569,283.9479,949.8535,286.1405,955.0681,280.9258,957.2607,290.77,956.9569" style="stroke:#181818;stroke-width:1;"/></g><!--link Trader to UC23--><g class="link" data-entity-1="ent0002" data-entity-2="ent0033" data-link-type="dependency" data-source-line="76" id="lnk55"><path d="M99.37,863.0569 C118.89,888.2769 142.37,922.6969 155.77,957.0369 C164.28,978.8169 147.73,992.0269 163.77,1009.0369 C186.44,1033.0569 214.928,1042.373 246.778,1045.973" fill="none" id="Trader-to-UC23" style="stroke:#181818;stroke-width:1;"/><polygon fill="#181818" points="252.74,1046.6469,244.2462,1041.6614,247.7716,1046.0853,243.3477,1049.6107,252.74,1046.6469" style="stroke:#181818;stroke-width:1;"/></g><!--link System to UC19--><g class="link" data-entity-1="ent0003" data-entity-2="ent0027" data-link-type="dependency" data-source-line="78" id="lnk56"><path d="M104.87,1579.9769 C121.31,1597.2069 141.79,1615.3269 163.77,1627.0369 C192.26,1642.2069 220.7528,1649.9835 251.0128,1655.0635" fill="none" id="System-to-UC19" style="stroke:#181818;stroke-width:1;"/><polygon fill="#181818" points="256.93,1656.0569,248.7165,1650.622,251.999,1655.2291,247.392,1658.5116,256.93,1656.0569" style="stroke:#181818;stroke-width:1;"/></g><!--link System to UC13--><g class="link" data-entity-1="ent0003" data-entity-2="ent0020" data-link-type="dependency" data-source-line="79" id="lnk57"><path d="M109.81,1509.7769 C126.59,1500.9269 145.99,1490.8569 163.77,1482.0369 C207.44,1460.3669 252.6961,1439.2778 286.9561,1423.5678" fill="none" id="System-to-UC13" style="stroke:#181818;stroke-width:1;"/><polygon fill="#181818" points="292.41,1421.0669,282.5618,1421.1823,287.8651,1423.151,285.8964,1428.4542,292.41,1421.0669" style="stroke:#181818;stroke-width:1;"/></g><!--link UC4 to UC9--><g class="link" data-entity-1="ent0010" data-entity-2="ent0015" data-link-type="dependency" data-source-line="81" id="lnk58"><path d="M397.53,514.3169 C449.02,515.3669 516.5012,516.7251 575.6112,517.9251" fill="none" id="UC4-to-UC9" style="stroke:#181818;stroke-width:1;stroke-dasharray:7,7;"/><polygon fill="#181818" points="581.61,518.0469,572.693,513.865,576.611,517.9454,572.5307,521.8634,581.61,518.0469" style="stroke:#181818;stroke-width:1;"/><text fill="#000000" font-family="sans-serif" font-size="13" lengthAdjust="spacing" textLength="63.0068" x="487.41" y="513.1038">&#171;include&#187;</text></g><!--link UC4 to UC10--><g class="link" data-entity-1="ent0010" data-entity-2="ent0016" data-link-type="dependency" data-source-line="82" id="lnk59"><path d="M380.74,523.6869 C448.87,539.2569 568.6607,566.6107 633.3207,581.3807" fill="none" id="UC4-to-UC10" style="stroke:#181818;stroke-width:1;stroke-dasharray:7,7;"/><polygon fill="#181818" points="639.17,582.7169,631.2868,576.8131,634.2956,581.6034,629.5052,584.6122,639.17,582.7169" style="stroke:#181818;stroke-width:1;"/><text fill="#000000" font-family="sans-serif" font-size="13" lengthAdjust="spacing" textLength="61.1851" x="488.41" y="547.1038">&#171;extend&#187;</text></g><!--link UC4 to UC11--><g class="link" data-entity-1="ent0010" data-entity-2="ent0017" data-link-type="dependency" data-source-line="83" id="lnk60"><path d="M397.76,512.6369 C426.09,515.8369 457.67,524.6169 478.41,546.0369 C491.32,559.3769 474.5,572.7869 486.41,587.0369 C515.46,621.8069 538.87,608.4269 581.41,624.0369 C600.27,630.9569 615.6218,636.3284 633.4018,642.3984" fill="none" id="UC4-to-UC11" style="stroke:#181818;stroke-width:1;stroke-dasharray:7,7;"/><polygon fill="#181818" points="639.08,644.3369,631.855,637.6436,634.3482,642.7214,629.2703,645.2146,639.08,644.3369" style="stroke:#181818;stroke-width:1;"/><text fill="#000000" font-family="sans-serif" font-size="13" lengthAdjust="spacing" textLength="61.1851" x="488.41" y="583.1038">&#171;extend&#187;</text></g><?plantuml-src ZLNRQkCm47ttLmnPAEr3I-IsQREKGd1Ijdk1KhTzsXVLdjgYiXGakMqe2_iH-uNx9IjV52mvkoo1aF4vCtDqPkHmV39W92XMb0PofZ0pJ8f8FpEnfefMiARPCoqmDHkEqC1K51m719ePgJgOlgAMrH1yjDc5ahN84ycbWWzNg-OpOEYIvlALYGAkADSOHOOPM-fEqRnv-5dMIb0EUt3Bz3CixE-DPXhIZJPOmU-Vl-1U8oJKVYqPBMp9A6ebmUHQvEo5vRLDRygXcW3L_K_7wUfy5_kBsiYA6imFMbRtF8gs9uR9_qcQm7i4pZMOsB8b2iCoslZQWG2rngnHFBd5Wjai1OiiiowPjlTzGdpMLramqKFn29ArIpkss8zesBuzB7oZmaOLDlK30Ob2U-ZEbBxAYSzOvSnu-AcFBv5ZK67cCnuOldOuBD5GndNFE_DvLumtLkn1YbHbPPVYkES-ztxD9SqXAQaoa6OAKUXIEYFcFlcE5fu-CXsPsEjRAIMLOmLJMBsjfUgjqB2Vf0y7ZXcFZ6-tmevTDsk2JQ9TdP7xhJDBgij7ILKENswktN79yGxc3QedgIegCeHj0vSGZ2sHbRrW2AbHTi35PfZiKavtz6WTs2wrOyv61snt_n-BjSGd9h2x8hSrtywHdEresh8QnPmDzPs7boL3zjBNN71KPbjqFjQ7BxQo_jl2MpUOpA5ZkQirtIMjPS0dUqsbsZWc6VLBqJGZ7ZViF79pO5iZudWdRsHOtDrgswrxSy7XuMNxYl32s0-F_V343q_zSEQ7PtvuxeVpGCOqY0DT91160cKaa4O2RIGGHm9r990N1thYqAT0ZtKtwlzB-eBp8BO4Qo0S7RMdXuzmSS54nkiSBoy729cs4BuP5BcF40_v0m00?></g></svg>